SplineFontDB: 3.0
FontName: Pantaloons
FullName: Pantaloons
FamilyName: Pantaloons
Weight: Italic
Copyright: Copyright (c) 2016, Terrence Curran
UComments: "2016-1-30: Created with FontForge (http://fontforge.org)"
Version: 2016-01-30
ItalicAngle: 0
UnderlinePosition: -100
UnderlineWidth: 50
Ascent: 800
Descent: 200
InvalidEm: 0
LayerCount: 2
Layer: 0 0 "Back" 1
Layer: 1 0 "Fore" 0
XUID: [1021 270 -1463357204 3708279]
OS2Version: 0
OS2_WeightWidthSlopeOnly: 0
OS2_UseTypoMetrics: 1
CreationTime: 1454192658
ModificationTime: 1454206420
OS2TypoAscent: 0
OS2TypoAOffset: 1
OS2TypoDescent: 0
OS2TypoDOffset: 1
OS2TypoLinegap: 0
OS2WinAscent: 0
OS2WinAOffset: 1
OS2WinDescent: 0
OS2WinDOffset: 1
HheadAscent: 0
HheadAOffset: 1
HheadDescent: 0
HheadDOffset: 1
OS2CapHeight: 0
OS2XHeight: 0
OS2Vendor: 'GRIL'
MarkAttachClasses: 1
DEI: 91125
Encoding: ISO8859-1
UnicodeInterp: none
NameList: AGL For New Fonts
DisplaySize: -48
AntiAlias: 1
FitToEm: 1
WinInfo: 0 19 9
BeginPrivate: 0
EndPrivate
BeginChars: 256 116

StartChar: A
Encoding: 65 65 0
Width: 674
Flags: W
HStem: -31 20 751 20G
LayerCount: 2
Back
Fore
SplineSet
377 28 m 2
 475 300 l 1
 426 300 l 2
 398 300 382 313 389 328 c 0
 396 343 424 356 452 356 c 2
 496 356 l 1
 599 634 l 1
 150 35 l 2
 122 -3 -15 -33 12 55 c 0
 64 230 178 152 169 147 c 1
 611 744 l 2
 637 779 677 781 673 747 c 2
 615 115 l 2
 605 0 332 -98 377 28 c 2
EndSplineSet
EndChar

StartChar: B
Encoding: 66 66 1
Width: 889
Flags: W
HStem: -2 43<294 377.5 294 400> -2 328 393 44<511 552.5> 721 51<660 703>
VStem: 146 124 325 124 581 122 744 145
LayerCount: 2
Back
Fore
SplineSet
159 216 m 0
 224 385 344 340 296 212 c 1
 259 134 252 41 336 41 c 0
 419 41 503 109 541 187 c 0
 601 309 594 393 511 393 c 0
 368 396 291 480 339 583 c 0
 356 620 388 655 428 684 c 1
 434 726 433 756 434 765 c 1
 449 765 475 771 497 771 c 1
 494 754 493 739 490 722 c 1
 552 753 625 772 695 772 c 0
 843 772 924 687 875 583 c 0
 839 505 743 441 635 412 c 1
 707 368 719 267 682 187 c 0
 633 83 474 -2 326 -2 c 0
 257 -2 209 21 178 57 c 1
 156 24 134 -3 117 -17 c 0
 70 -57 29 -52 6 -26 c 0
 -43 31 64 137 118 92 c 1
 128 103 137 114 146 124 c 1
 140 153 145 185 159 216 c 0
726 578 m 0
 763 657 745 721 661 721 c 0
 578 721 504 657 467 578 c 0
 431 500 445 437 529 437 c 0
 612 437 690 500 726 578 c 0
EndSplineSet
EndChar

StartChar: C
Encoding: 67 67 2
Width: 714
Flags: W
HStem: -11 59 498 273 710 61
VStem: 12 159 584 130
LayerCount: 2
Back
Fore
SplineSet
523 164 m 0xd8
 494 122 450 54 299 6 c 0
 101 -57 -23 59 21 266 c 0
 66 472 262 685 461 753 c 0
 600 801 709 751 714 623 c 0
 718 503 576 458 584 540 c 0
 593 640 632 710 531 710 c 0xb8
 463 710 312 527 238 345 c 0
 164 164 144 48 218 48 c 0
 282 48 344 50 423 188 c 1
 499 329 632 317 523 164 c 0xd8
EndSplineSet
EndChar

StartChar: D
Encoding: 68 68 3
Width: 753
Flags: W
HStem: -10 58 710 61
VStem: 584 169
LayerCount: 2
Back
Fore
SplineSet
364 657 m 1
 268 612 260 718 363 775 c 0
 409 801 463 810 465 766 c 0
 465 764 463 758 459 748 c 1
 532 777 602 780 654 754 c 0
 790 685 787 472 639 266 c 0
 491 60 259 -56 119 7 c 0
 104 14 91 21 81 29 c 1
 71 18 61 9 51 0 c 1
 31 0 28 0 14 0 c 1
 28 14 42 32 56 51 c 1
 23 91 36 134 42 164 c 0
 69 287 169 319 177 254 c 1
 260 413 333 590 364 657 c 1
261 309 m 0
 230 241 189 171 148 111 c 1
 145 49 190 48 239 48 c 0
 313 48 402 164 497 346 c 0
 592 527 611 710 544 710 c 0
 487 710 453 700 420 663 c 1
 380 567 287 367 261 309 c 0
EndSplineSet
EndChar

StartChar: E
Encoding: 69 69 4
Width: 789
Flags: W
HStem: 0 20 107 255 419 224<311 617 473 617> 419 227
LayerCount: 2
Back
Fore
SplineSet
479 0 m 2xd0
 62 0 l 2
 15 0 -14 32 6 75 c 0
 26 117 86 162 133 156 c 1
 210 326 321 583 356 657 c 1
 260 612 252 718 354 775 c 0
 401 801 455 810 457 766 c 0
 457 764 458 763 456 757 c 1
 485 757 625 760 671 759 c 0
 839 759 833 480 622 491 c 0
 603 492 555 537 596 566 c 0
 646 601 732 640 617 643 c 0xe0
 603 643 433 640 408 640 c 1
 381 574 362 529 311 419 c 1
 473 419 l 2
 501 419 517 407 510 391 c 0
 503 375 475 362 447 362 c 2
 284 362 l 1
 230 247 217 211 171 137 c 1
 189 131 314 74 439 135 c 1
 413 227 561 267 587 200 c 0
 613 134 516 0 479 0 c 2xd0
EndSplineSet
EndChar

StartChar: F
Encoding: 70 70 5
Width: 786
Flags: W
HStem: 0 58<12 79 53 79 53 92 133 168> 362 57<308 443 281 470> 491 268 643 116<606 751>
VStem: 671 115
LayerCount: 2
Back
Fore
SplineSet
349 658 m 1xe8
 253 613 249 718 351 775 c 0
 397 801 451 810 453 766 c 0
 453 764 454 763 452 757 c 1
 481 757 622 760 667 759 c 0
 835 759 829 480 618 491 c 0
 599 492 551 537 593 566 c 0
 643 601 728 640 613 643 c 0xd8
 599 643 429 640 404 640 c 1
 377 574 358 529 308 419 c 1
 470 419 l 2
 497 419 514 407 507 391 c 0
 499 375 471 362 443 362 c 2
 281 362 l 1
 233 261 195 150 133 58 c 1
 198 58 l 2
 226 58 242 45 235 30 c 0
 227 14 195 0 168 0 c 2
 92 0 l 1
 26 0 l 2
 -2 0 -18 14 -10 30 c 0
 -3 45 25 58 53 58 c 2
 79 58 l 1
 162 209 305 563 349 658 c 1xe8
EndSplineSet
EndChar

StartChar: G
Encoding: 71 71 6
Width: 726
Flags: W
HStem: -11 59 167 216 230 153 498 273 710 61
VStem: 19 159 591 130
LayerCount: 2
Back
Fore
SplineSet
530 164 m 0xd6
 501 122 457 54 306 6 c 0
 108 -57 -16 59 28 266 c 0
 73 472 269 685 468 753 c 0
 607 801 716 751 721 623 c 0
 725 503 583 458 591 540 c 0
 600 640 639 710 538 710 c 0xb6
 470 710 319 527 245 345 c 0
 171 164 151 48 225 48 c 0
 289 48 351 50 430 188 c 0
 450 226 474 252 496 268 c 1
 436 286 377 263 370 178 c 0
 369 156 280 145 289 168 c 0
 360 367 668 464 725 300 c 0
 737 266 627 146 614 170 c 0
 601 194 585 214 566 230 c 1xce
 560 212 549 190 530 164 c 0xd6
EndSplineSet
EndChar

StartChar: H
Encoding: 72 72 7
Width: 692
Flags: W
HStem: -6 20 762 20G
LayerCount: 2
Back
Fore
SplineSet
210 447 m 2
 237 447 l 1
 274 528 306 598 321 629 c 1
 225 585 213 698 315 755 c 0
 362 780 416 789 418 745 c 0
 418 734 365 601 295 447 c 1
 477 447 l 1
 485 465 542 600 559 638 c 1
 464 593 457 702 559 759 c 0
 606 785 702 811 691 701 c 0
 689 681 560 364 436 139 c 1
 525 204 572 108 481 31 c 0
 439 -3 381 -19 364 16 c 1
 358 10 352 5 346 0 c 1
 260 1 l 1
 282 30 l 1
 333 126 447 371 457 394 c 1
 270 393 l 1
 228 304 184 213 142 137 c 1
 231 201 278 105 186 29 c 0
 145 -6 87 -22 69 14 c 1
 64 8 60 5 54 0 c 1
 43 0 30 1 16 1 c 1
 42 35 134 227 212 393 c 1
 185 393 l 2
 157 393 139 404 146 419 c 0
 153 435 182 447 210 447 c 2
EndSplineSet
EndChar

StartChar: I
Encoding: 73 73 8
Width: 779
Flags: W
HStem: 1 117<120 398 363 398 363 412> 1 269 508 267 659 116<602 744.5> 661 115<476 491 540 540>
VStem: 2 115 664 115
LayerCount: 2
Back
Fore
SplineSet
284 119 m 1x96
 284 119 328 118 398 118 c 1
 391 195 533 197 532 116 c 0
 532 77 524 30 470 10 c 0
 459 5 440 0 412 1 c 0
 380 1 383 1 299 1 c 0
 270 1 164 1 120 1 c 0
 -49 1 -41 282 169 270 c 0x8e
 188 269 236 224 195 195 c 0
 145 160 59 122 174 119 c 0
 179 119 208 119 230 119 c 1
 260 165 494 661 488 661 c 0
 464 661 452 659 383 659 c 1x96
 389 583 247 581 248 662 c 0
 248 701 259 734 311 768 c 0
 318 772 333 775 362 776 c 0xa6
 380 776 449 776 536 776 c 0
 565 776 615 776 660 775 c 0x8e
 829 775 822 496 611 508 c 0
 592 509 544 554 586 583 c 0
 636 618 721 656 606 659 c 0x96
 598 659 540 661 540 661 c 1x4e
 532 602 339 174 284 119 c 1x96
EndSplineSet
EndChar

StartChar: J
Encoding: 74 74 9
Width: 737
Flags: W
HStem: -8 20 756 20G<320 494 494 619 619 703.5>
LayerCount: 2
Back
Fore
SplineSet
515 659 m 1
 481 588 432 456 371 325 c 0
 308 189 197 -4 103 -8 c 0
 49 -10 22 -13 0 186 c 0
 -7 248 36 316 119 336 c 0
 190 353 269 238 137 209 c 1
 143 128 130 91 205 129 c 0
 231 141 287 263 322 332 c 0
 356 398 428 575 468 659 c 1
 468 659 448 659 442 659 c 0
 418 659 411 659 341 659 c 1
 348 583 206 581 206 662 c 0
 207 701 217 734 269 768 c 0
 276 772 291 775 320 776 c 0
 339 776 407 776 494 776 c 2
 494 776 619 776 619 776 c 2
 788 776 780 496 570 508 c 0
 551 509 503 554 544 583 c 0
 594 618 680 656 564 659 c 0
 556 659 515 659 515 659 c 1
EndSplineSet
EndChar

StartChar: K
Encoding: 75 75 10
Width: 711
Flags: W
HStem: 0 20
LayerCount: 2
Back
Fore
SplineSet
397 765 m 0
 397 755 346 632 281 487 c 1
 370 570 479 670 562 739 c 0
 656 817 775 745 670 672 c 2
 317 442 l 1
 359 341 472 29 337 0 c 0
 318 0 251 0 231 0 c 0
 221 0 213 0 205 0 c 0
 173 0 195 47 226 47 c 0
 235 47 245 47 256 47 c 1
 346 146 310 361 285 419 c 1
 266 404 249 390 232 377 c 1
 159 220 78 62 28 0 c 1
 7 0 14 0 -1 0 c 1
 12 17 79 164 148 316 c 1
 140 311 134 307 128 303 c 0
 80 276 89 305 115 329 c 0
 125 339 149 363 185 396 c 1
 236 509 284 614 304 656 c 1
 208 611 192 718 294 775 c 0
 341 801 395 809 397 765 c 0
EndSplineSet
EndChar

StartChar: L
Encoding: 76 76 11
Width: 500
Flags: W
HStem: 1 108
VStem: 344 156
LayerCount: 2
Back
Fore
SplineSet
360 656 m 1
 264 611 248 718 350 775 c 0
 397 801 451 809 453 765 c 0
 453 747 292 364 170 137 c 1
 190 137 222 75 347 135 c 1
 321 228 469 268 495 201 c 0
 521 134 425 1 387 1 c 0
 324 1 189 1 137 1 c 0
 115 1 79 1 64 1 c 0
 17 1 2 34 22 76 c 0
 41 118 80 154 127 154 c 1
 196 294 317 565 360 656 c 1
EndSplineSet
EndChar

StartChar: M
Encoding: 77 77 12
Width: 900
Flags: W
HStem: -29 20
VStem: 202 274 474 263 485 252
LayerCount: 2
Back
Fore
SplineSet
356 512 m 1xd0
 287 356 197 166 131 58 c 1
 163 58 l 2
 191 58 207 46 200 30 c 0
 193 14 160 0 133 0 c 2
 107 0 l 1
 42 0 l 2
 14 0 -2 14 5 30 c 0
 13 45 41 58 68 58 c 2
 93 58 l 1
 163 200 323 554 366 643 c 1
 315 614 277 711 379 768 c 0
 426 794 487 782 485 713 c 0xd0
 485 701 482 599 474 429 c 1xa0
 574 506 675 588 760 656 c 0
 761 659 762 661 763 663 c 1
 712 651 735 770 838 793 c 0
 884 803 921 771 887 694 c 0
 877 675 653 175 605 104 c 1
 656 116 643 -5 541 -27 c 0
 494 -38 454 -1 489 75 c 0
 493 85 655 430 726 583 c 1
 634 511 529 431 468 383 c 1
 519 412 553 312 451 255 c 0
 404 229 349 239 350 309 c 0
 351 326 346 343 356 512 c 1xd0
EndSplineSet
EndChar

StartChar: N
Encoding: 78 78 13
Width: 799
Flags: W
HStem: -18 20 0 58<24 85 65 85 65 104 129 140> 721 58<629 761 726 726 726 731>
VStem: 333 129
LayerCount: 2
Back
Fore
SplineSet
446 120 m 1xb0
 511 151 535 52 433 -5 c 0
 386 -31 331 -21 333 49 c 0
 334 66 343 343 353 512 c 1
 283 355 195 166 129 58 c 1x70
 170 58 l 2
 198 58 210 45 203 29 c 0
 195 14 168 0 140 0 c 2
 104 0 l 1
 38 0 l 2
 10 0 -5 14 2 30 c 0
 9 45 38 58 65 58 c 2
 85 58 l 1
 152 202 312 553 356 643 c 1
 305 614 274 711 376 768 c 0
 422 794 483 782 482 713 c 0
 481 701 471 437 462 267 c 1
 532 424 622 614 688 721 c 1
 629 721 l 2
 602 721 585 734 593 750 c 0
 600 766 628 778 656 778 c 2
 718 779 l 1
 761 779 l 2
 788 779 805 766 797 750 c 0
 790 734 759 721 731 721 c 2
 726 721 l 1
 660 577 507 216 446 120 c 1xb0
EndSplineSet
EndChar

StartChar: O
Encoding: 79 79 14
Width: 694
Flags: W
HStem: -1 20
LayerCount: 2
Back
Fore
SplineSet
35 279 m 0
 86 487 273 708 452 772 c 0
 630 836 733 718 681 509 c 0
 629 301 442 80 264 16 c 0
 85 -48 -17 70 35 279 c 0
230 359 m 0
 154 175 137 71 196 60 c 0
 258 48 398 208 475 392 c 0
 551 576 578 720 506 720 c 0
 447 720 307 543 230 359 c 0
EndSplineSet
EndChar

StartChar: P
Encoding: 80 80 15
Width: 796
Flags: W
HStem: 0 57<16 98 57 96 96 98 142 173> 739 32
VStem: 648 148
LayerCount: 2
Back
Fore
SplineSet
796 614 m 0
 784 490 637 358 467 320 c 0
 385 301 321 304 274 323 c 1
 225 221 180 124 142 57 c 1
 202 57 l 2
 229 57 246 44 238 28 c 0
 231 13 201 0 173 0 c 2
 96 0 l 1
 30 0 l 2
 2 0 -14 13 -7 28 c 0
 1 44 29 57 57 57 c 2
 98 57 l 1
 130 122 180 232 232 346 c 1
 207 368 200 374 195 411 c 0
 180 512 289 558 311 523 c 1
 326 557 364 639 373 656 c 1
 277 611 261 718 363 775 c 0
 409 801 463 809 465 765 c 0
 465 763 464 754 458 740 c 1
 650 818 807 738 796 614 c 0
626 543 m 0
 668 653 649 739 576 739 c 0
 535 739 464 686 415 622 c 1
 395 578 370 531 347 479 c 1
 317 389 332 352 390 346 c 0
 455 339 584 434 626 543 c 0
EndSplineSet
EndChar

StartChar: Q
Encoding: 81 81 16
Width: 691
Flags: W
VStem: 18 140 291 106 301 96
LayerCount: 2
Back
Fore
SplineSet
678 509 m 0xc0
 640 358 509 179 384 80 c 1
 382 55 389 36 388 10 c 1
 439 39 487 -47 385 -104 c 0
 339 -130 291 -122 292 -53 c 0
 293 -46 288 -8 289 33 c 1
 280 29 270 20 261 16 c 0
 83 -48 -20 70 32 279 c 0
 84 487 270 708 449 772 c 0
 627 836 730 718 678 509 c 0xc0
472 392 m 0
 548 576 575 720 504 720 c 0
 444 720 304 543 228 359 c 0
 151 175 134 71 194 60 c 0
 217 55 252 75 291 113 c 1
 294 163 297 223 301 284 c 1xa0
 250 255 211 352 314 408 c 0
 360 434 404 424 402 354 c 0
 402 349 399 271 397 228 c 1
 433 271 455 352 472 392 c 0
EndSplineSet
EndChar

StartChar: R
Encoding: 82 82 17
Width: 809
Flags: W
HStem: -27 20 -1 58<69 107 69 107 42 107 154 184> 739 32
VStem: 205 139 409 121 420 110 679 129
LayerCount: 2
Back
Fore
SplineSet
808 614 m 0xfa
 798 504 684 389 540 337 c 1
 539 325 539 279 530 109 c 1
 581 138 612 43 509 -14 c 0
 463 -39 408 -30 409 40 c 0
 410 58 410 141 420 309 c 1xf6
 365 303 321 309 286 323 c 1
 237 221 192 124 154 57 c 1
 214 57 l 2
 241 57 250 43 242 27 c 0
 235 11 211 0 184 -1 c 2
 107 -1 l 1
 42 -1 l 2
 14 0 1 13 9 28 c 0
 16 44 41 57 69 57 c 2
 107 57 l 1
 140 123 194 235 244 346 c 1
 219 368 214 370 207 405 c 0
 191 477 295 564 323 523 c 1
 338 557 377 639 385 656 c 1
 289 611 273 718 375 775 c 0
 422 801 476 809 477 765 c 0
 478 763 476 754 470 740 c 1
 662 818 820 738 808 614 c 0xfa
659 540 m 0
 707 677 661 739 588 739 c 0
 548 739 476 686 428 622 c 1
 407 578 382 531 359 479 c 1
 329 389 344 352 402 346 c 0
 468 339 615 412 659 540 c 0
EndSplineSet
EndChar

StartChar: S
Encoding: 83 83 18
Width: 599
Flags: W
HStem: -6 35 731 54
VStem: 26 105 123 75 479 120
LayerCount: 2
Back
Fore
SplineSet
424 577 m 0xd8
 488 674 535 856 327 602 c 0
 219 471 120 257 287 391 c 0
 319 417 353 449 389 457 c 0
 633 513 640 173 277 23 c 0
 143 -32 24 -9 26 96 c 0xe8
 26 113 14 140 28 163 c 0
 61 217 215 331 183 201 c 0
 168 140 119 98 134 72 c 0
 193 -36 309 76 380 221 c 0
 420 303 458 467 351 388 c 0
 297 349 248 296 189 295 c 0
 -6 293 269 770 471 785 c 0
 576 793 652 666 551 549 c 0
 488 476 353 472 424 577 c 0xd8
EndSplineSet
EndChar

StartChar: T
Encoding: 84 84 19
Width: 679
Flags: W
HStem: 1 20 756 20G<262 436 392.5 450.5>
LayerCount: 2
Back
Fore
SplineSet
457 659 m 1
 423 588 268 193 173 59 c 1
 210 59 l 2
 237 59 254 46 247 31 c 0
 239 15 208 1 181 1 c 2
 103 1 l 1
 38 1 l 2
 10 1 -6 15 2 31 c 0
 9 46 37 59 65 59 c 2
 115 59 l 1
 160 142 363 575 403 660 c 1
 389 660 390 659 384 659 c 0
 360 659 353 659 283 659 c 1
 290 583 148 581 148 662 c 0
 149 701 160 734 211 768 c 0
 218 772 234 775 262 776 c 0
 281 776 349 776 436 776 c 0
 465 776 515 776 561 775 c 0
 729 775 722 496 512 508 c 0
 493 509 445 554 486 583 c 0
 536 618 622 656 507 659 c 0
 499 659 477 659 457 659 c 1
EndSplineSet
EndChar

StartChar: U
Encoding: 85 85 20
Width: 676
Flags: W
HStem: -10 20 749 20G
LayerCount: 2
Back
Fore
SplineSet
311 123 m 0
 327 133 367 171 383 207 c 0
 405 252 532 522 579 622 c 1
 483 578 471 691 573 748 c 0
 620 774 674 782 676 738 c 0
 676 720 557 435 433 210 c 1
 570 258 545 119 454 43 c 0
 412 8 332 8 314 44 c 1
 175 -65 -55 -5 41 195 c 0
 62 240 185 506 199 535 c 0
 239 622 260 661 268 680 c 0
 282 708 311 734 317 738 c 0
 368 774 403 774 434 756 c 0
 498 719 419 598 352 612 c 1
 319 542 133 147 122 123 c 0
 83 40 260 89 311 123 c 0
EndSplineSet
EndChar

StartChar: V
Encoding: 86 86 21
Width: 675
Flags: W
HStem: -16 20
LayerCount: 2
Back
Fore
SplineSet
148 121 m 1
 491 727 l 2
 563 853 744 755 648 640 c 2
 117 8 l 2
 88 -26 50 -24 57 11 c 2
 172 608 l 1
 176 603 -10 525 100 699 c 0
 156 788 264 758 257 720 c 2
 148 121 l 1
EndSplineSet
EndChar

StartChar: W
Encoding: 87 87 22
Width: 1097
Flags: W
HStem: -10 20 756 20G
LayerCount: 2
Back
Fore
SplineSet
682 623 m 2
 635 564 l 1
 601 392 585 231 569 111 c 1
 912 717 l 2
 984 843 1166 744 1069 629 c 2
 546 14 l 2
 517 -20 480 -18 486 17 c 1
 488 136 507 272 521 432 c 1
 165 14 l 2
 136 -20 98 -18 105 17 c 1
 106 174 132 362 158 584 c 1
 165 581 -10 508 100 682 c 0
 156 771 280 739 273 701 c 0
 218 421 206 257 183 105 c 1
 526 710 l 2
 597 837 777 739 682 623 c 2
EndSplineSet
EndChar

StartChar: X
Encoding: 88 88 23
Width: 837
Flags: W
HStem: -16 20
LayerCount: 2
Back
Fore
SplineSet
341 581 m 1
 266 503 193 571 267 660 c 0
 301 701 354 735 386 710 c 0
 393 704 415 571 434 421 c 1
 688 704 l 2
 793 821 906 660 785 563 c 2
 448 292 l 1
 455 228 462 167 465 118 c 1
 519 204 635 173 585 79 c 0
 563 36 480 -69 427 16 c 1
 423 33 409 135 393 246 c 1
 102 12 l 1
 -1 -54 -17 32 1 75 c 0
 40 169 185 202 159 116 c 1
 376 357 l 1
 361 457 347 548 341 581 c 1
EndSplineSet
EndChar

StartChar: Y
Encoding: 89 89 24
Width: 709
Flags: W
HStem: -5 58<31 122 72 110 110 122 182 187>
LayerCount: 2
Back
Fore
SplineSet
212 581 m 1
 137 503 64 571 138 660 c 0
 172 701 225 735 256 710 c 0
 270 700 290 620 305 422 c 1
 558 704 l 2
 663 821 779 657 656 563 c 2
 289 280 l 1
 255 209 245 151 182 53 c 1
 217 53 l 2
 242 53 261 41 253 25 c 0
 246 9 215 -5 187 -5 c 2
 110 -5 l 1
 45 -5 l 2
 17 -5 1 9 8 25 c 0
 16 41 44 53 72 53 c 2
 122 53 l 1
 149 110 209 239 248 324 c 1
 241 362 227 497 212 581 c 1
EndSplineSet
EndChar

StartChar: Z
Encoding: 90 90 25
Width: 957
Flags: W
HStem: -4 20 229 319
LayerCount: 2
Back
Fore
SplineSet
329 147 m 0
 322 122 306 84 277 65 c 1
 355 65 430 43 488 39 c 1
 485 147 658 265 675 156 c 0
 683 105 659 34 589 4 c 0
 578 0 533 -3 472 -4 c 0
 326 -4 146 -4 25 -4 c 0
 -15 -4 -31 11 -21 31 c 0
 0 76 28 69 66 69 c 1
 96 175 386 382 429 413 c 2
 429 413 629 550 782 651 c 1
 674 660 527 669 447 678 c 1
 443 567 273 490 263 604 c 0
 258 656 286 727 356 754 c 0
 388 765 695 760 863 706 c 1
 915 739 918 740 923 743 c 0
 938 751 956 751 957 749 c 0
 961 732 940 712 907 689 c 1
 917 685 924 680 932 675 c 1
 922 654 922 653 912 632 c 1
 904 637 876 642 839 646 c 1
 760 596 620 502 559 458 c 0
 417 356 366 311 231 209 c 1
 278 238 318 238 333 201 c 0
 341 181 334 165 329 147 c 0
EndSplineSet
EndChar

StartChar: a
Encoding: 97 97 26
Width: 713
Flags: W
HStem: -31 20 17 200<212.5 359> 93 124 254 150
LayerCount: 2
Back
Fore
SplineSet
713 464 m 0
 696 377 609 282 518 220 c 1
 561 196 578 161 560 122 c 0
 539 76 472 35 389 11 c 1
 399 6 411 5 440 5 c 0
 463 5 449 -31 425 -31 c 0
 371 -31 345 -23 339 -1 c 1
 303 -8 267 -11 230 -11 c 0
 82 -11 -10 49 24 122 c 0
 58 195 206 254 354 254 c 0
 406 254 451 247 486 234 c 1
 522 256 555 301 587 337 c 0
 666 427 221 412 208 372 c 0
 199 342 217 331 202 314 c 0
 196 308 190 308 182 303 c 0
 165 291 153 369 163 430 c 0
 187 574 729 548 713 464 c 0
358 161 m 0
 388 182 401 186 418 195 c 1
 398 208 376 217 342 217 c 0
 258 217 189 174 164 119 c 0
 138 64 171 17 254 17 c 0
 284 17 302 22 330 32 c 1
 333 44 338 58 343 74 c 0
 352 97 388 100 380 77 c 0
 376 66 372 56 369 48 c 1
 403 66 418 93 430 119 c 0
 441 140 449 156 438 173 c 1
 415 158 391 144 369 130 c 0
 332 107 324 138 358 161 c 0
EndSplineSet
EndChar

StartChar: b
Encoding: 98 98 27
Width: 675
Flags: W
HStem: -15 20 491 45
LayerCount: 2
Back
Fore
SplineSet
672 341 m 0
 648 196 495 42 329 -2 c 0
 213 -33 124 -5 87 65 c 1
 70 38 55 16 41 0 c 1
 20 0 27 0 12 0 c 1
 19 9 41 54 70 118 c 1
 67 137 67 158 70 180 c 0
 82 254 129 330 192 393 c 1
 242 506 289 614 309 656 c 1
 213 612 205 718 308 775 c 0
 354 801 408 809 410 765 c 0
 410 755 356 622 287 468 c 1
 327 493 370 512 413 524 c 0
 579 568 695 486 672 341 c 0
492 263 m 0
 542 391 550 491 480 491 c 0
 422 491 308 368 257 240 c 0
 206 112 204 40 263 32 c 0
 325 23 441 135 492 263 c 0
EndSplineSet
EndChar

StartChar: c
Encoding: 99 99 28
Width: 596
Flags: W
HStem: -12 41 347 192 496 43
VStem: 22 143
LayerCount: 2
Back
Fore
SplineSet
464 111 m 0xd0
 442 82 409 34 283 0 c 0
 117 -44 2 38 25 183 c 0
 48 328 201 478 368 526 c 0
 484 560 582 525 595 435 c 0
 607 350 488 318 489 376 c 0
 490 446 518 496 431 496 c 0xb0
 373 496 256 367 206 239 c 0
 155 111 146 29 210 29 c 0
 265 29 319 31 376 129 c 0
 431 228 547 219 464 111 c 0xd0
EndSplineSet
EndChar

StartChar: d
Encoding: 100 100 29
Width: 836
Flags: W
HStem: -12 20
LayerCount: 2
Back
Fore
SplineSet
598 343 m 0
 584 255 522 164 438 95 c 1
 414 43 397 7 396 -1 c 1
 382 -1 388 -1 367 -1 c 1
 369 13 373 32 381 55 c 1
 341 31 299 11 256 0 c 0
 89 -45 -26 37 -3 182 c 0
 21 328 174 482 340 526 c 0
 441 553 521 533 565 481 c 1
 636 629 702 754 712 764 c 0
 755 808 801 799 823 774 c 0
 872 717 765 610 711 655 c 1
 693 616 647 523 597 421 c 1
 602 398 603 372 598 343 c 0
189 259 m 0
 138 131 125 38 184 30 c 0
 246 22 362 134 413 262 c 0
 463 390 470 490 401 490 c 0
 343 490 240 387 189 259 c 0
EndSplineSet
EndChar

StartChar: e
Encoding: 101 101 30
Width: 690
Flags: W
HStem: -17 31<215 298.5 215 306> 260 30<335 361> 489 36<428 511.5>
VStem: 19 140 139 143 560 130
LayerCount: 2
Back
Fore
SplineSet
147 393 m 0
 181 466 328 525 476 525 c 0
 625 525 717 466 683 393 c 0
 649 321 506 262 361 260 c 0
 277 260 204 201 167 116 c 0
 143 61 173 14 257 14 c 0
 340 14 406 78 432 133 c 1
 485 223 641 254 572 136 c 1
 538 63 380 -17 232 -17 c 0
 84 -17 -8 43 26 116 c 0
 52 172 144 242 252 273 c 1
 167 294 121 338 147 393 c 0
292 390 m 0
 266 335 293 290 377 290 c 0
 461 290 525 335 551 390 c 0
 576 444 553 489 470 489 c 0
 386 489 317 444 292 390 c 0
EndSplineSet
EndChar

StartChar: f
Encoding: 102 102 31
Width: 596
Flags: W
HStem: 1 20 764 20G
LayerCount: 2
Back
Fore
SplineSet
4 1 m 1
 14 23 99 208 177 377 c 1
 115 372 70 337 86 269 c 0
 90 250 -2 219 0 241 c 0
 11 350 118 448 228 487 c 1
 261 559 289 620 304 649 c 0
 360 770 685 874 573 658 c 0
 563 639 486 570 470 597 c 0
 450 631 404 698 330 583 c 0
 326 577 313 546 294 502 c 1
 350 509 401 498 434 459 c 0
 457 433 373 303 352 321 c 0
 319 348 277 366 237 373 c 1
 176 239 97 77 36 1 c 1
 14 1 19 1 4 1 c 1
EndSplineSet
EndChar

StartChar: g
Encoding: 103 103 32
Width: 699
Flags: W
HStem: -13 20 15 204<215.5 362> 252 19<288 372.5> 301 135<359 379.5 359 400.5> 370 130 578 20G
VStem: 395 196
LayerCount: 2
Back
Fore
SplineSet
692 403 m 0xf6
 670 356 600 315 514 292 c 1
 512 271 504 250 490 229 c 1
 550 206 579 165 558 119 c 0
 524 46 376 -13 228 -13 c 0
 80 -13 -12 46 22 119 c 0
 56 193 204 252 352 252 c 0
 393 252 430 247 461 239 c 1
 470 253 475 268 476 282 c 1
 440 275 401 271 362 271 c 0
 214 271 121 330 156 403 c 0
 174 444 228 480 297 504 c 1
 295 527 302 552 322 582 c 0
 338 605 402 603 383 581 c 0
 360 556 348 534 345 517 c 1
 390 529 436 536 486 536 c 0
 634 536 726 477 692 403 c 0xf6
584 400 m 0
 609 455 562 500 479 500 c 0xee
 440 500 399 490 365 474 c 1
 371 472 377 471 384 471 c 0
 407 471 391 436 368 436 c 0
 350 436 335 441 322 449 c 1
 304 434 289 418 281 400 c 0
 256 345 303 301 386 301 c 0
 415 301 444 306 472 315 c 1
 469 323 464 332 458 340 c 0
 448 355 483 381 493 366 c 0
 501 354 507 343 510 332 c 1
 544 349 572 374 584 400 c 0
370 158 m 0
 386 168 407 181 419 191 c 1
 405 209 379 219 345 219 c 0
 276 219 198 174 172 117 c 0
 146 61 181 15 250 15 c 0
 320 15 398 61 424 117 c 0
 432 135 436 151 433 166 c 1
 419 155 400 144 382 132 c 0
 357 116 345 142 370 158 c 0
EndSplineSet
EndChar

StartChar: h
Encoding: 104 104 33
Width: 635
Flags: W
HStem: -1 20
LayerCount: 2
Back
Fore
SplineSet
40 0 m 1
 18 0 25 0 10 0 c 1
 24 17 92 170 160 324 c 1
 153 320 145 315 140 312 c 0
 93 285 66 303 86 330 c 0
 94 339 136 366 193 397 c 1
 243 511 287 613 307 656 c 1
 212 612 204 718 306 775 c 0
 352 801 406 809 408 765 c 0
 409 754 347 604 271 438 c 1
 418 510 603 579 634 514 c 0
 652 475 380 113 302 0 c 1
 257 0 249 -1 173 -1 c 1
 103 -9 125 54 205 46 c 1
 375 233 441 381 397 434 c 0
 385 449 309 410 240 371 c 1
 168 216 89 62 40 0 c 1
EndSplineSet
EndChar

StartChar: i
Encoding: 105 105 34
Width: 436
Flags: W
HStem: -22 20 36 279 474 171<272.5 402>
LayerCount: 2
Back
Fore
SplineSet
40 36 m 2
 105 36 l 1
 137 103 205 239 245 325 c 1
 150 280 140 387 242 444 c 0
 289 470 343 478 345 435 c 0
 346 413 221 180 139 36 c 1
 204 36 l 2
 228 37 212 0 188 0 c 2
 117 0 l 1
 94 -32 78 -25 87 0 c 1
 23 0 l 2
 0 0 17 36 40 36 c 2
247 559 m 0
 269 606 327 645 377 645 c 0
 427 645 449 606 427 559 c 0
 405 512 347 474 297 474 c 0
 248 474 225 512 247 559 c 0
EndSplineSet
EndChar

StartChar: j
Encoding: 106 106 35
Width: 596
Flags: W
HStem: 496 171<433 562>
LayerCount: 2
Back
Fore
SplineSet
510 432 m 0
 510 414 399 255 315 115 c 1
 228 -18 105 -159 85 -172 c 0
 34 -207 0 -183 -8 -148 c 0
 -20 -98 126 29 56 -134 c 0
 49 -150 77 -137 85 -128 c 0
 134 -66 214 53 273 145 c 0
 311 207 354 276 377 327 c 1
 282 283 266 391 368 448 c 0
 414 474 508 476 510 432 c 0
408 582 m 0
 430 629 488 667 537 667 c 0
 587 667 609 629 587 582 c 0
 565 534 507 496 458 496 c 0
 408 496 386 534 408 582 c 0
EndSplineSet
EndChar

StartChar: k
Encoding: 107 107 36
Width: 629
Flags: W
HStem: -1 20 349 191
VStem: 294 49
LayerCount: 2
Back
Fore
SplineSet
628 514 m 0
 637 495 562 306 445 358 c 1
 417 393 422 388 401 413 c 0
 392 424 376 419 325 399 c 1
 367 298 327 59 286 0 c 1
 267 0 188 0 168 0 c 0
 99 -8 119 54 200 46 c 1
 290 145 309 325 284 383 c 1
 264 375 247 368 230 361 c 1
 159 210 83 60 34 0 c 1
 13 0 20 0 5 0 c 1
 18 17 88 170 159 325 c 1
 150 321 142 317 135 312 c 0
 88 285 60 303 81 330 c 0
 88 339 133 367 192 400 c 1
 243 512 290 614 310 656 c 1
 214 611 198 718 300 775 c 0
 347 801 401 809 403 765 c 0
 403 754 341 605 265 438 c 1
 412 510 597 579 628 514 c 0
EndSplineSet
EndChar

StartChar: l
Encoding: 108 108 37
Width: 410
Flags: W
HStem: -6 20
LayerCount: 2
Back
Fore
SplineSet
42 0 m 1
 20 0 27 0 12 0 c 1
 33 47 266 549 314 649 c 1
 218 605 206 718 308 775 c 0
 354 801 408 809 410 765 c 0
 411 747 249 361 125 137 c 1
 214 201 261 105 170 29 c 0
 128 -6 71 -22 53 14 c 1
 49 8 45 5 42 0 c 1
EndSplineSet
EndChar

StartChar: m
Encoding: 109 109 38
Width: 969
Flags: W
HStem: -1 20 558 20G
LayerCount: 2
Back
Fore
SplineSet
219 405 m 1
 224 415 231 431 235 440 c 1
 140 395 120 499 222 556 c 0
 269 582 323 591 325 547 c 0
 325 540 310 499 285 441 c 1
 431 512 611 578 641 514 c 0
 646 505 635 478 614 442 c 1
 759 513 938 579 969 514 c 0
 987 475 715 114 637 1 c 1
 592 1 584 0 508 0 c 1
 438 -8 460 55 540 46 c 1
 710 233 776 381 732 434 c 0
 719 450 637 406 566 366 c 1
 484 240 359 72 310 0 c 1
 265 0 256 -1 180 -1 c 1
 111 -9 132 54 213 46 c 1
 383 233 449 381 405 434 c 0
 393 448 322 415 256 377 c 1
 198 249 113 81 47 0 c 1
 26 0 33 0 18 0 c 1
 37 25 122 203 184 334 c 1
 169 326 157 318 148 312 c 0
 101 285 73 303 94 330 c 0
 102 340 152 369 219 405 c 1
EndSplineSet
EndChar

StartChar: n
Encoding: 110 110 39
Width: 644
Flags: W
HStem: -1 20 558 20G
LayerCount: 2
Back
Fore
SplineSet
97 330 m 0
 105 340 151 370 215 405 c 1
 221 417 226 427 230 437 c 1
 135 392 122 499 224 556 c 0
 271 582 325 591 327 547 c 0
 327 540 312 498 287 440 c 1
 433 512 614 579 644 514 c 0
 663 475 390 113 312 0 c 1
 268 0 259 -1 183 -1 c 1
 114 -9 135 54 216 46 c 1
 386 233 451 381 408 434 c 0
 396 449 325 414 259 376 c 1
 200 248 115 81 49 0 c 1
 28 0 35 0 20 0 c 1
 39 25 120 200 180 330 c 1
 168 323 159 317 151 312 c 0
 104 285 76 303 97 330 c 0
EndSplineSet
EndChar

StartChar: o
Encoding: 111 111 40
Width: 636
Flags: W
HStem: -15 20
LayerCount: 2
Back
Fore
SplineSet
32 179 m 0
 55 325 209 479 375 523 c 0
 541 567 657 486 633 340 c 0
 610 195 456 41 290 -3 c 0
 124 -48 9 34 32 179 c 0
213 236 m 0
 162 108 159 35 219 27 c 0
 281 19 397 131 447 259 c 0
 498 387 505 487 435 487 c 0
 377 487 263 364 213 236 c 0
EndSplineSet
EndChar

StartChar: p
Encoding: 112 112 41
Width: 864
Flags: W
HStem: -229 20 553 20G
LayerCount: 2
Back
Fore
SplineSet
576 541 m 0
 572 537 561 523 546 503 c 1
 564 511 583 518 603 523 c 0
 769 567 884 486 861 340 c 0
 838 195 684 41 518 -3 c 0
 379 -41 275 11 260 115 c 1
 193 24 136 -56 109 -91 c 1
 204 -67 187 -189 83 -224 c 0
 35 -240 -41 -210 -3 -163 c 0
 12 -146 136 29 265 204 c 1
 288 295 360 387 451 450 c 1
 486 495 514 532 536 555 c 0
 578 594 594 561 576 541 c 0
440 236 m 0
 390 108 387 35 447 27 c 0
 508 19 624 131 675 259 c 0
 726 387 733 487 663 487 c 0
 605 487 491 364 440 236 c 0
EndSplineSet
EndChar

StartChar: q
Encoding: 113 113 42
Width: 627
Flags: W
HStem: -229 20 487 48 553 20G
VStem: 20 142 325 167 474 137 570 53
LayerCount: 2
Back
Fore
SplineSet
570 541 m 0xfa
 572 561 618 594 623 555 c 0
 623 532 618 495 611 450 c 1xfa
 642 387 629 295 568 204 c 1
 533 29 494 -146 492 -163 c 0xf4
 487 -210 382 -240 350 -224 c 0
 278 -189 375 -67 448 -91 c 1
 454 -56 470 24 489 115 c 1
 377 11 225 -41 121 -3 c 0
 -4 41 -14 195 98 340 c 0
 210 486 402 567 527 523 c 0
 541 518 554 511 566 503 c 1
 568 523 571 537 570 541 c 0xfa
421 236 m 0
 490 364 490 487 433 487 c 0
 363 487 276 387 208 259 c 0
 139 131 151 19 221 27 c 0
 288 35 352 108 421 236 c 0
EndSplineSet
EndChar

StartChar: r
Encoding: 114 114 43
Width: 664
Flags: W
HStem: -21 56 0 35<5 79 33 61 121 153 33 99> 243 206 554 20G
LayerCount: 2
Back
Fore
SplineSet
663 514 m 0xb0
 674 490 607 415 512 280 c 1
 440 200 358 265 406 332 c 0
 448 390 454 422 426 434 c 0
 409 441 352 415 293 383 c 1
 243 271 174 125 121 35 c 1
 169 35 l 2
 192 35 176 0 153 0 c 2x70
 99 0 l 1
 90 -13 41 -37 59 -4 c 0
 61 -2 59 -4 61 0 c 1
 17 0 l 2
 -7 0 10 35 33 35 c 2
 79 35 l 1
 112 104 177 242 224 344 c 1
 202 332 182 320 169 312 c 0
 122 285 95 303 115 330 c 0
 124 341 186 380 258 417 c 0
 260 421 263 428 264 431 c 1
 169 387 153 495 255 552 c 0
 301 578 355 587 357 543 c 0
 358 536 344 500 322 449 c 1
 465 517 633 576 663 514 c 0xb0
EndSplineSet
EndChar

StartChar: s
Encoding: 115 115 44
Width: 471
Flags: W
HStem: -17 24 198 37 508 39
VStem: 36 85 103 60 373 98
LayerCount: 2
Back
Fore
SplineSet
335 399 m 0xec
 383 467 413 598 256 416 c 0
 176 322 105 170 233 266 c 0
 257 284 284 307 312 313 c 0
 505 353 524 110 240 4 c 0
 135 -36 39 -19 36 55 c 0xf4
 36 67 25 87 35 103 c 0
 59 142 178 223 158 130 c 0
 148 87 111 57 123 38 c 0
 175 -39 263 41 314 145 c 0
 343 203 367 320 284 264 c 0
 243 236 206 198 159 198 c 0
 3 196 204 536 364 547 c 0
 448 552 514 462 438 378 c 0
 391 326 282 324 335 399 c 0xec
EndSplineSet
EndChar

StartChar: t
Encoding: 116 116 45
Width: 443
Flags: W
HStem: -8 20 53 267 395 36 559 20G
LayerCount: 2
Back
Fore
SplineSet
134 396 m 2
 199 395 l 1
 208 413 215 428 222 442 c 1
 126 397 107 499 210 556 c 0
 256 582 339 595 316 546 c 0
 312 537 282 475 241 395 c 1
 419 396 l 2
 469 396 434 321 384 321 c 2
 202 320 l 1
 161 240 118 152 87 85 c 0
 66 42 120 32 156 122 c 0
 210 257 371 211 308 113 c 0
 294 92 220 35 115 -5 c 0
 76 -19 5 9 24 50 c 0
 36 77 102 208 159 320 c 1
 99 321 l 2
 49 321 84 396 134 396 c 2
EndSplineSet
EndChar

StartChar: u
Encoding: 117 117 46
Width: 702
Flags: W
HStem: -8 20 558 20G
VStem: 460 99
LayerCount: 2
Back
Fore
SplineSet
17 18 m 0
 -8 56 209 418 269 531 c 1
 314 531 323 531 399 531 c 1
 467 539 455 477 372 485 c 1
 232 298 189 151 241 97 c 0
 256 82 315 95 371 118 c 1
 620 511 l 2
 638 540 717 599 700 570 c 2
 444 152 l 1
 539 200 622 103 494 18 c 0
 472 3 439 -5 419 0 c 0
 371 12 556 157 388 73 c 1
 352 13 l 2
 335 -16 295 -2 313 26 c 2
 340 67 l 1
 216 12 53 -41 17 18 c 0
EndSplineSet
EndChar

StartChar: v
Encoding: 118 118 47
Width: 481
Flags: W
HStem: -9 20 550 20G
LayerCount: 2
Back
Fore
SplineSet
200 542 m 2
 101 77 l 1
 101 77 315 346 340 509 c 0
 355 603 523 538 471 445 c 0
 368 263 316 186 102 7 c 0
 75 -15 40 -14 45 13 c 2
 137 455 l 2
 140 451 6 392 89 526 c 0
 132 594 207 571 200 542 c 2
EndSplineSet
EndChar

StartChar: w
Encoding: 119 119 48
Width: 977
Flags: W
HStem: -9 20<680 680>
LayerCount: 2
Back
Fore
SplineSet
977 500 m 1
 769 149 l 1
 864 196 949 102 821 16 c 0
 800 2 766 -7 746 -1 c 0
 698 10 883 155 715 71 c 1
 680 11 l 2
 663 -18 622 -4 641 25 c 2
 667 65 l 1
 543 10 381 -42 344 16 c 0
 339 24 342 40 353 68 c 1
 229 13 61 -41 24 18 c 0
 0 56 216 418 276 531 c 1
 321 531 331 531 407 531 c 1
 475 539 462 477 380 485 c 1
 239 298 196 151 248 97 c 0
 261 84 307 92 355 108 c 0
 362 111 370 114 378 118 c 1
 435 243 552 448 596 530 c 1
 641 530 651 530 727 530 c 1
 795 538 782 476 700 484 c 1
 559 297 516 149 568 96 c 0
 583 80 642 93 698 116 c 1
 869 388 l 1
 774 344 762 458 864 515 c 0
 911 541 975 544 977 500 c 1
EndSplineSet
EndChar

StartChar: x
Encoding: 120 120 49
Width: 814
Flags: W
HStem: -31 20
LayerCount: 2
Back
Fore
SplineSet
639 538 m 1
 639 537 814 538 814 538 c 1
 750 468 608 327 487 206 c 1
 511 122 534 44 546 0 c 1
 525 0 502 0 478 0 c 1
 463 55 449 106 436 153 c 1
 354 73 258 -10 235 -18 c 0
 156 -46 144 -26 130 34 c 1
 100 128 24 4 5 16 c 0
 -14 28 -13 40 40 85 c 0
 69 108 147 174 164 112 c 0
 171 82 174 60 197 75 c 0
 240 104 335 192 407 259 c 1
 390 323 376 377 366 418 c 1
 294 338 197 383 267 474 c 0
 299 515 339 536 385 529 c 0
 407 525 424 421 457 306 c 1
 522 368 601 448 651 498 c 1
 644 498 628 498 621 498 c 0
 591 498 609 538 639 538 c 1
EndSplineSet
EndChar

StartChar: y
Encoding: 121 121 50
Width: 795
Flags: W
HStem: -225 40 -225 195 558 20G
VStem: 559 93
LayerCount: 2
Back
Fore
SplineSet
103 -225 m 0
 54 -225 14 -220 1 -176 c 0
 -20 -100 52 -42 136 -31 c 0
 173 -26 247 -33 194 -94 c 0
 144 -152 120 -103 89 -169 c 1
 128 -221 281 -138 383 -2 c 0
 392 10 400 20 409 33 c 2
 433 67 l 1
 308 12 146 -41 109 18 c 0
 85 56 301 418 361 531 c 1
 406 531 416 531 492 531 c 1
 560 539 547 477 465 485 c 1
 324 298 281 151 333 97 c 0
 348 82 408 95 463 118 c 1
 712 511 l 2
 730 540 810 599 792 570 c 2
 536 152 l 1
 631 200 714 103 586 18 c 0
 565 3 532 -5 512 0 c 0
 463 12 657 163 489 79 c 1
 452 25 l 2
 356 -112 245 -225 103 -225 c 0
EndSplineSet
EndChar

StartChar: z
Encoding: 122 122 51
Width: 744
Flags: W
HStem: 0 20 144 319 166 224
LayerCount: 2
Back
Fore
SplineSet
271 107 m 0xa0
 266 89 255 62 233 49 c 1
 295 49 355 33 401 30 c 1
 395 107 527 190 545 113 c 0
 553 78 537 27 482 6 c 0
 474 3 439 1 390 0 c 0
 275 0 132 0 37 0 c 0
 5 0 -8 11 -1 25 c 0
 14 57 37 52 66 52 c 1
 86 127 307 273 340 295 c 2
 340 295 492 392 609 463 c 1xc0
 524 469 407 475 343 482 c 1
 345 404 214 349 201 430 c 0
 195 466 215 517 269 535 c 0
 294 544 536 540 671 501 c 1
 711 525 713 526 718 528 c 0
 729 534 743 534 744 532 c 0
 748 520 732 506 707 490 c 1
 715 487 721 483 727 479 c 1
 720 465 720 464 713 449 c 1
 706 453 684 457 655 459 c 1
 594 424 487 357 441 326 c 0
 332 254 294 223 192 151 c 1
 227 171 261 174 273 145 c 0
 278 131 274 120 271 107 c 0xa0
EndSplineSet
EndChar

StartChar: one
Encoding: 49 49 52
Width: 562
Flags: W
HStem: 1 58<21.5 88 62 88 62 101 143 177>
LayerCount: 2
Back
Fore
SplineSet
553 707 m 0
 464 553 208 318 143 59 c 1
 207 59 l 2
 235 59 252 47 244 31 c 0
 237 15 205 1 177 1 c 2
 101 1 l 1
 35 1 l 2
 8 1 -8 15 -1 31 c 0
 6 47 35 59 62 59 c 2
 88 59 l 1
 169 390 329 474 411 606 c 1
 338 536 297 510 268 542 c 0
 254 557 217 583 362 670 c 0
 382 682 608 801 553 707 c 0
EndSplineSet
EndChar

StartChar: two
Encoding: 50 50 53
Width: 748
Flags: W
HStem: 0 110 724 51<518.5 519>
VStem: 396 156 603 145
LayerCount: 2
Back
Fore
SplineSet
99 205 m 0
 136 284 248 410 393 442 c 1
 480 450 548 502 585 581 c 0
 621 659 603 723 519 724 c 0
 421 724 376 597 320 583 c 0
 188 549 254 650 319 698 c 0
 381 745 483 775 554 775 c 0
 702 775 782 690 733 586 c 0
 697 508 592 436 491 425 c 0
 397 414 255 333 201 211 c 0
 191 189 191 164 190 145 c 1
 210 145 274 74 400 134 c 1
 373 227 522 267 548 200 c 0
 574 133 478 0 440 0 c 0
 377 0 242 0 189 0 c 0
 168 0 65 1 51 1 c 0
 4 1 -15 34 5 76 c 0
 25 118 51 151 98 151 c 1
 88 168 92 189 99 205 c 0
EndSplineSet
EndChar

StartChar: three
Encoding: 51 51 54
Width: 776
Flags: W
HStem: 442 282 755 20G<546.5 656>
VStem: 197 269
LayerCount: 2
Back
Fore
SplineSet
548 724 m 0
 449 724 404 597 348 583 c 0
 216 549 282 650 347 698 c 0
 409 745 511 775 582 775 c 0
 730 775 810 690 761 586 c 0
 725 508 629 444 521 415 c 1
 593 371 605 270 568 190 c 0
 520 86 360 1 212 1 c 0
 144 1 87 18 65 60 c 0
 51 85 34 188 46 219 c 0
 112 388 239 345 183 217 c 0
 145 128 139 44 222 44 c 0
 306 44 389 112 427 190 c 0
 487 312 478 390 397 396 c 0
 366 399 374 438 421 442 c 0
 508 450 576 502 613 581 c 0
 649 659 631 723 548 724 c 0
EndSplineSet
EndChar

StartChar: four
Encoding: 52 52 55
Width: 569
Flags: W
HStem: 226 108<91.0771 192.034> 332 53<498.354 596.653>
LayerCount: 2
Back
Fore
SplineSet
553.341796875 576 m 1x80
 559.09765625 570 507.413085938 406 498.353515625 380 c 1
 573.057617188 385 l 2
 574.057617188 385 575.057617188 385 576.057617188 385 c 0
 594.057617188 385 606.486328125 371 598.916015625 357 c 0
 594.049804688 348 580.641601562 338 554.397460938 332 c 0x40
 544.315429688 330 477.315429688 330 477.315429688 330 c 1
 471.286132812 317 463.71484375 303 456.14453125 289 c 0
 385.305664062 158 278.569335938 5 258.243164062 -3 c 1
 147.703125 -4 l 1
 208.749023438 83 256.112304688 141 299.373046875 221 c 0
 317.217773438 254 334.766601562 292 351.560546875 336 c 1
 332.641601562 338 320.723632812 340 315.263671875 341 c 1
 245.411132812 271 171.077148438 226 117.077148438 226 c 0
 65.0771484375 226 -42.751953125 267 67.5625 471 c 0
 151.920898438 627 314.841796875 760 432.841796875 760 c 0
 469.841796875 760 499.6484375 743 480.181640625 707 c 0
 435.298828125 624 361.076171875 594 332.076171875 594 c 0
 243.076171875 594 159.763671875 525 123.533203125 458 c 0
 89.46484375 395 97.478515625 334 179.478515625 334 c 0
 208.478515625 334 255.967773438 346 308.923828125 394 c 1
 320.731445312 377 336.190429688 376 365.190429688 376 c 1
 393.9921875 457 416.548828125 532 433.801757812 575 c 1
 553.341796875 576 l 1x80
EndSplineSet
EndChar

StartChar: five
Encoding: 53 53 56
Width: 636
Flags: W
HStem: -15 20
LayerCount: 2
Back
Fore
SplineSet
32 179 m 0
 55 325 209 479 375 523 c 0
 541 567 657 486 633 340 c 0
 610 195 456 41 290 -3 c 0
 124 -48 9 34 32 179 c 0
213 236 m 0
 162 108 159 35 219 27 c 0
 281 19 397 131 447 259 c 0
 498 387 505 487 435 487 c 0
 377 487 263 364 213 236 c 0
EndSplineSet
EndChar

StartChar: six
Encoding: 54 54 57
Width: 685
Flags: W
HStem: -10 20
VStem: 230 206
LayerCount: 2
Back
Fore
SplineSet
18 162 m 0
 37 290 176 426 330 465 c 0
 483 504 592 432 574 304 c 0
 555 176 416 40 263 1 c 0
 109 -39 0 34 18 162 c 0
185 211 m 0
 141 98 140 34 195 27 c 0
 253 20 358 119 403 232 c 0
 447 345 452 433 387 433 c 0
 333 433 230 324 185 211 c 0
301 336 m 1
 317 295 l 1
 188 289 122 327 144 456 c 0
 165 585 306 719 459 756 c 0
 612 793 712 736 679 604 c 0
 671 571 596 516 531 533 c 1
 432 570 517 717 456 718 c 0
 402 719 296 628 250 515 c 0
 203 402 253 307 301 336 c 1
EndSplineSet
EndChar

StartChar: seven
Encoding: 55 55 58
Width: 886
Flags: W
HStem: 255 277
VStem: 309 77 687 199
LayerCount: 2
Back
Fore
SplineSet
537 262 m 1
 432 195 l 1
 112 101 499 489 643 521 c 0
 880 574 940 415 839 298 c 0
 776 225 596 245 666 351 c 0
 731 447 639 585 431 330 c 0
 323 199 429 174 537 262 c 1
EndSplineSet
EndChar

StartChar: eight
Encoding: 56 56 59
Width: 960
Flags: W
HStem: -122 140 42 25<414.5 447> 161 120 247 34<493 546> 415 116 706 48<596 798.5>
VStem: 14 110 238 125 367 41 622 111 930 30
LayerCount: 2
Back
Fore
SplineSet
528 51 m 1xefe0
 496 45 464 42 430 42 c 0
 297 42 214 95 244 161 c 0
 275 227 408 281 541 281 c 0
 588 281 629 274 661 262 c 1
 693 282 723 323 752 355 c 0
 823 436 422 423 411 386 c 0
 402 359 419 348 405 334 c 0
 399 329 394 329 387 324 c 0
 372 314 361 383 370 438 c 0
 392 568 879 545 864 469 c 0
 849 391 771 305 689 250 c 1
 727 228 743 196 727 161 c 0
 708 120 648 83 573 62 c 1
 582 57 594 58 619 56 c 0
 731 48 844 239 892 340 c 0
 986 543 900 706 697 706 c 0
 495 706 255 542 161 340 c 0
 67 139 157 2 383 18 c 0
 521 28 446 -122 317 -122 c 0
 79 -122 -58 85 53 323 c 0
 164 561 447 754 686 754 c 0
 924 754 1027 561 916 323 c 0
 864 213 712 11 612 24 c 0
 568 29 534 31 528 51 c 1xefe0
545 197 m 0
 572 215 584 219 599 227 c 1
 581 238 561 247 531 247 c 0xdfe0
 455 247 394 208 370 158 c 0
 347 109 377 67 452 67 c 0
 478 67 495 71 520 80 c 1
 523 91 527 103 532 118 c 0
 540 139 573 142 565 121 c 0
 561 111 558 102 555 95 c 1
 585 111 599 135 610 158 c 0
 620 178 627 192 618 207 c 1
 596 194 575 181 555 168 c 0
 522 147 515 176 545 197 c 0
EndSplineSet
EndChar

StartChar: zero
Encoding: 48 48 60
Width: 875
Flags: W
HStem: -6 20 764 20G
LayerCount: 2
Back
Fore
SplineSet
24 273 m 0
 58 482 276 703 510 767 c 0
 744 831 905 713 870 504 c 0
 835 296 618 75 384 11 c 0
 150 -53 -11 65 24 273 c 0
278 354 m 0
 205 170 200 66 284 55 c 0
 371 43 535 203 608 387 c 0
 681 571 693 715 595 715 c 0
 513 714 351 538 278 354 c 0
EndSplineSet
EndChar

StartChar: dollar
Encoding: 36 36 61
Width: 504
Flags: W
HStem: 408 55 725 69 738 132
VStem: 30 68 302 146
LayerCount: 2
Back
Fore
SplineSet
61 96 m 0xb8
 54 113 28 140 32 163 c 0
 39 217 140 331 169 201 c 0
 183 140 154 98 180 72 c 0
 193 60 205 50 216 43 c 1
 224 120 221 232 214 344 c 1
 192 318 169 296 131 295 c 0
 -32 293 20 639 158 756 c 1
 156 761 153 765 151 768 c 1
 81 684 -9 795 67 852 c 0
 101 878 138 876 177 846 c 0
 182 843 187 820 195 781 c 1
 210 788 225 793 241 794 c 0xd8
 342 802 485 662 439 544 c 0
 410 472 276 467 298 573 c 0
 314 649 286 771 212 707 c 1
 224 638 237 549 246 453 c 1
 249 455 252 456 255 457 c 0
 473 513 640 173 346 23 c 0
 314 7 280 -3 247 -5 c 1
 244 -27 242 -35 238 -54 c 1
 300 -28 330 -119 268 -147 c 0
 229 -164 130 -137 189 -51 c 0
 198 -43 204 -28 209 -6 c 1
 144 0 89 34 61 96 c 0xb8
209 422 m 1
 200 514 190 604 178 669 c 1
 167 654 155 634 142 611 c 0
 76 489 80 257 185 391 c 0
 192 401 200 412 209 422 c 1
357 221 m 0
 359 303 321 463 251 389 c 1
 261 264 265 135 253 29 c 1
 317 21 354 112 357 221 c 0
EndSplineSet
EndChar

StartChar: percent
Encoding: 37 37 62
Width: 531
Flags: W
HStem: 30 82 330 314 407 272 588 56
VStem: 29 82 221 78 342 110
LayerCount: 2
Back
Fore
SplineSet
123 93 m 1
 152 159 224 35 135 30 c 0
 92 27 60 47 51 84 c 0
 35 155 371 510 438 586 c 0
 458 609 455 707 403 600 c 0
 381 554 305 649 276 661 c 0
 268 664 198 698 250 646 c 0
 263 634 279 634 294 586 c 0
 315 513 275 436 204 413 c 0
 132 391 57 432 35 505 c 0
 13 578 60 635 106 670 c 0
 138 693 178 667 147 649 c 0
 117 633 106 598 111 533 c 0
 115 469 131 433 162 429 c 0
 194 424 225 481 221 545 c 0
 217 597 217 612 196 629 c 0
 147 670 208 755 242 721 c 0
 294 670 389 615 420 661 c 0
 468 730 565 690 510 609 c 0
 498 592 57 133 123 93 c 1
266 151 m 0
 244 224 284 302 356 324 c 0
 427 346 503 305 525 232 c 0
 547 159 506 82 435 59 c 0
 364 37 288 78 266 151 c 0
342 179 m 0
 346 115 362 79 393 75 c 0
 425 71 457 127 452 191 c 0
 448 255 428 306 394 306 c 0
 365 306 338 244 342 179 c 0
EndSplineSet
EndChar

StartChar: ampersand
Encoding: 38 38 63
Width: 566
Flags: W
HStem: 357 30 589 140
VStem: 29 141<160 160> 52 53 181 129 427 139
LayerCount: 2
Back
Fore
SplineSet
29 160 m 0xec
 29 234 88 329 181 370 c 1
 87 397 52 434 52 506 c 0xec
 52 604 128 669 156 687 c 0
 343 810 359 626 309 595 c 0
 254 560 183 697 121 610 c 0
 58 522 199 354 276 392 c 0
 326 418 316 344 279 354 c 0
 194 377 167 274 170 160 c 0xdc
 172 99 205 47 265 30 c 1
 311 271 405 602 410 622 c 0
 438 749 508 707 534 668 c 0
 591 581 501 490 441 564 c 1
 425 493 360 207 316 24 c 1
 393 29 427 112 427 183 c 1
 438 302 580 345 565 187 c 1
 565 91 451 -12 306 -15 c 1
 292 -76 281 -94 277 -103 c 0
 240 -198 187 -164 161 -135 c 0
 103 -69 192 7 251 -48 c 1
 253 -38 256 -30 258 -15 c 1
 129 -2 29 71 29 160 c 0xec
EndSplineSet
EndChar

StartChar: asciicircum
Encoding: 94 94 64
Width: 566
Flags: W
HStem: 357 30 589 140
VStem: 29 141<160 160> 52 53 181 129 427 139
LayerCount: 2
Back
Fore
SplineSet
29 160 m 0xec
 29 234 88 329 181 370 c 1
 87 397 52 434 52 506 c 0xec
 52 604 128 669 156 687 c 0
 343 810 359 626 309 595 c 0
 254 560 183 697 121 610 c 0
 58 522 199 354 276 392 c 0
 326 418 316 344 279 354 c 0
 194 377 167 274 170 160 c 0xdc
 172 99 205 47 265 30 c 1
 311 271 405 602 410 622 c 0
 438 749 508 707 534 668 c 0
 591 581 501 490 441 564 c 1
 425 493 360 207 316 24 c 1
 393 29 427 112 427 183 c 1
 438 302 580 345 565 187 c 1
 565 91 451 -12 306 -15 c 1
 292 -76 281 -94 277 -103 c 0
 240 -198 187 -164 161 -135 c 0
 103 -69 192 7 251 -48 c 1
 253 -38 256 -30 258 -15 c 1
 129 -2 29 71 29 160 c 0xec
EndSplineSet
EndChar

StartChar: bracketleft
Encoding: 91 91 65
Width: 494
Flags: W
HStem: -6 20 752 20G
LayerCount: 2
Back
Fore
SplineSet
4 0 m 1
 25 47 314 665 361 766 c 1
 376 766 369 766 390 766 c 1
 390 761 390 758 389 752 c 1
 440 788 483 772 492 737 c 0
 512 661 376 573 348 638 c 1
 349 619 244 361 120 137 c 1
 209 201 256 105 165 29 c 0
 123 -6 66 -22 48 14 c 1
 44 8 40 5 37 0 c 1
 15 0 19 0 4 0 c 1
EndSplineSet
EndChar

StartChar: backslash
Encoding: 92 92 66
Width: 436
Flags: W
HStem: 6 128
LayerCount: 2
Back
Fore
SplineSet
17 765 m 1
 117 561 294 113 354 105 c 1
 421 188 470 76 409 18 c 0
 372 -17 314 30 273 99 c 0
 268 108 19 573 17 765 c 1
EndSplineSet
EndChar

StartChar: bracketright
Encoding: 93 93 67
Width: 497
Flags: W
HStem: -6 20 752 20G
LayerCount: 2
Back
Fore
SplineSet
139 0 m 1
 125 0 128 0 107 0 c 1
 107 5 107 8 108 14 c 1
 57 -22 15 -6 5 29 c 0
 -15 105 122 201 151 137 c 1
 237 361 372 619 390 638 c 1
 302 573 248 661 339 737 c 0
 381 772 438 788 456 752 c 1
 460 758 464 761 467 766 c 1
 489 766 482 766 497 766 c 1
 450 665 162 47 139 0 c 1
EndSplineSet
EndChar

StartChar: exclam
Encoding: 33 33 68
Width: 211
Flags: W
HStem: -2 156<100.5 141.5>
VStem: 44 163 46 150<54.5 97.5>
LayerCount: 2
Back
Fore
SplineSet
135 266 m 1xc0
 256 315 150 76 107 231 c 0
 99 257 92 292 84 350 c 0
 71 430 63 476 52 537 c 0
 35 623 35 756 130 756 c 0
 216 756 225 664 182 497 c 0
 176 476 164 403 150 347 c 0
 141 314 135 266 135 266 c 1xc0
46 76 m 0
 46 119 80 154 121 154 c 0
 162 154 196 119 196 76 c 0
 196 33 162 -2 121 -2 c 0
 80 -2 46 33 46 76 c 0
EndSplineSet
EndChar

StartChar: braceleft
Encoding: 123 123 69
Width: 208
Flags: W
HStem: -11 20
LayerCount: 2
Back
Fore
SplineSet
43 -4 m 1
 43 19 106 309 39 356 c 1
 109 397 48 709 48 760 c 1
 63 760 56 760 78 760 c 1
 79 756 81 752 82 747 c 1
 117 782 167 766 192 731 c 0
 248 655 121 583 89 649 c 1
 100 562 147 431 86 353 c 1
 127 309 96 176 90 105 c 1
 148 170 246 101 191 25 c 0
 165 -10 115 -26 81 10 c 1
 79 4 77 0 76 -4 c 1
 54 -4 58 -4 43 -4 c 1
EndSplineSet
EndChar

StartChar: braceright
Encoding: 125 125 70
Width: 209
Flags: W
HStem: -11 20 623 144
VStem: 130 44 140 37
LayerCount: 2
Back
Fore
SplineSet
203 -4 m 1
 189 -4 192 -4 171 -4 c 1
 169 0 167 4 166 10 c 1
 132 -26 81 -10 56 25 c 0
 0 101 98 170 157 105 c 1
 151 176 120 309 161 353 c 1
 100 431 147 562 158 649 c 1
 126 583 -1 655 54 731 c 0
 80 766 130 782 164 747 c 1
 166 752 168 756 169 760 c 1
 191 760 184 760 198 760 c 1
 198 709 137 397 207 356 c 1
 140 309 204 19 203 -4 c 1
EndSplineSet
EndChar

StartChar: acute
Encoding: 180 180 71
Width: 278
Flags: W
HStem: 516 156
VStem: 39 239
LayerCount: 2
Back
Fore
SplineSet
39 534 m 0
 49 572 83 565 111 586 c 0
 154 617 167 684 218 670 c 0
 243 663 255 649 271 628 c 0
 329 550 26 483 39 534 c 0
EndSplineSet
EndChar

StartChar: igrave
Encoding: 236 236 72
Width: 289
Flags: W
HStem: -22 20 36 279
LayerCount: 2
Back
Fore
SplineSet
106 36 m 2
 171 36 l 1
 173 103 178 239 177 325 c 1
 102 280 43 387 119 444 c 0
 153 470 203 478 226 435 c 0
 237 413 220 180 206 36 c 1
 271 36 l 2
 294 37 295 0 272 0 c 2
 201 0 l 1
 193 -32 173 -25 171 0 c 1
 106 0 l 2
 83 0 83 36 106 36 c 2
38 522 m 0
 48 560 82 553 110 574 c 0
 153 605 166 672 217 658 c 0
 242 651 254 637 270 616 c 0
 328 538 25 471 38 522 c 0
EndSplineSet
EndChar

StartChar: iacute
Encoding: 237 237 73
Width: 279
Flags: W
HStem: -22 20 36 279 499 35
VStem: 49 106 49 181
LayerCount: 2
Back
Fore
SplineSet
96 36 m 2xf0
 161 36 l 1
 163 103 168 239 167 325 c 1
 92 280 33 387 109 444 c 0
 143 470 193 478 216 435 c 0
 227 413 210 180 196 36 c 1
 261 36 l 2
 284 37 285 0 262 0 c 2
 191 0 l 1
 183 -32 163 -25 161 0 c 1
 96 0 l 2
 73 0 73 36 96 36 c 2xf0
230 521 m 1xe8
 185 467 16 519 54 605 c 0
 75 652 120 657 147 631 c 0
 169 609 141 562 147 550 c 0
 164 515 211 552 230 521 c 1xe8
EndSplineSet
EndChar

StartChar: icircumflex
Encoding: 238 238 74
Width: 247
Flags: W
HStem: -22 20 36 279
LayerCount: 2
Back
Fore
SplineSet
64 36 m 2
 129 36 l 1
 131 103 136 239 135 325 c 1
 60 280 1 387 77 444 c 0
 111 470 161 478 184 435 c 0
 195 413 178 180 164 36 c 1
 229 36 l 2
 252 37 253 0 230 0 c 2
 159 0 l 1
 151 -32 131 -25 129 0 c 1
 64 0 l 2
 41 0 41 36 64 36 c 2
EndSplineSet
EndChar

StartChar: idieresis
Encoding: 239 239 75
Width: 343
Flags: W
HStem: -22 20 36 279 474 152<246 286> 481 153<61.5 101>
VStem: 9 144<536 578> 194 141<532 571>
LayerCount: 2
Back
Fore
SplineSet
132 36 m 2xc0
 197 36 l 1
 199 103 204 239 203 325 c 1
 128 280 69 387 145 444 c 0
 179 470 229 478 252 435 c 0
 263 413 246 180 232 36 c 1
 297 36 l 2
 320 37 321 0 298 0 c 2
 227 0 l 1
 219 -32 199 -25 197 0 c 1
 132 0 l 2
 109 0 109 36 132 36 c 2xc0
9 557 m 0
 9 599 42 634 81 634 c 0
 121 634 153 599 153 557 c 0
 153 515 121 481 81 481 c 0
 42 481 9 515 9 557 c 0
194 550 m 0
 194 592 226 626 266 626 c 0x2c
 306 626 335 595 335 553 c 0
 335 511 306 474 266 474 c 0
 226 474 194 508 194 550 c 0
EndSplineSet
EndChar

StartChar: Igrave
Encoding: 204 204 76
Width: 793
Flags: W
HStem: 1 117<135 413 378 413 378 427 411 413 378 427> 1 269 508 267 659 116<617 759.5> 661 115<491 506 377 555>
VStem: 17 115 679 115
LayerCount: 2
Back
Fore
SplineSet
299 119 m 1x96
 354 174 547 602 555 661 c 1x8e
 555 661 613 659 621 659 c 0x96
 736 656 651 618 601 583 c 0
 559 554 607 509 626 508 c 0
 837 496 844 775 675 775 c 0xa6
 630 776 580 776 551 776 c 0
 464 776 395 776 377 776 c 0x8e
 348 775 333 772 326 768 c 0
 274 734 263 701 263 662 c 0
 262 581 404 583 398 659 c 1x96
 467 659 479 661 503 661 c 0
 509 661 275 165 245 119 c 1
 223 119 194 119 189 119 c 0
 74 122 160 160 210 195 c 0
 251 224 203 269 184 270 c 0x4e
 -26 282 -34 1 135 1 c 0
 179 1 285 1 314 1 c 0
 398 1 395 1 427 1 c 0
 455 0 474 5 485 10 c 0
 539 30 547 77 547 116 c 0
 548 197 406 195 413 118 c 1
 343 118 299 119 299 119 c 1x96
183 837 m 0
 193 875 227 868 255 889 c 0
 298 920 311 987 362 973 c 0
 387 966 399 952 415 931 c 0
 473 853 170 786 183 837 c 0
EndSplineSet
EndChar

StartChar: Iacute
Encoding: 205 205 77
Width: 799
Flags: W
HStem: 1 117<140 418 383 418 383 432> 1 269 508 267 659 116<622 764.5> 661 115<496 511 560 560>
VStem: 22 115 684 115
LayerCount: 2
Back
Fore
SplineSet
304 119 m 1x96
 304 119 348 118 418 118 c 1
 411 195 553 197 552 116 c 0
 552 77 544 30 490 10 c 0
 479 5 460 0 432 1 c 0
 400 1 403 1 319 1 c 0
 290 1 184 1 140 1 c 0
 -29 1 -21 282 189 270 c 0x8e
 208 269 256 224 215 195 c 0
 165 160 79 122 194 119 c 0
 199 119 228 119 250 119 c 1
 280 165 514 661 508 661 c 0
 484 661 472 659 403 659 c 1x96
 409 583 267 581 268 662 c 0
 268 701 279 734 331 768 c 0
 338 772 353 775 382 776 c 0xa6
 400 776 469 776 556 776 c 0
 585 776 635 776 680 775 c 0x8e
 849 775 842 496 631 508 c 0
 612 509 564 554 606 583 c 0
 656 618 741 656 626 659 c 0x96
 618 659 560 661 560 661 c 1x4e
 552 602 359 174 304 119 c 1x96
EndSplineSet
EndChar

StartChar: Icircumflex
Encoding: 206 206 78
Width: 797
Flags: W
HStem: 1 117<138 416 381 416 381 430> 1 269 508 267 659 116<620 762.5> 661 115<494 509 558 558> 801 152<330 370> 808 153<145.5 185>
VStem: 20 115 93 144<863 905> 278 141<859 898> 682 115
LayerCount: 2
Back
Fore
SplineSet
302 119 m 1x9120
 302 119 346 118 416 118 c 1
 409 195 551 197 550 116 c 0
 550 77 542 30 488 10 c 0
 477 5 458 0 430 1 c 0
 398 1 401 1 317 1 c 0
 288 1 182 1 138 1 c 0
 -31 1 -23 282 187 270 c 0x8920
 206 269 254 224 213 195 c 0
 163 160 77 122 192 119 c 0
 197 119 226 119 248 119 c 1
 278 165 512 661 506 661 c 0
 482 661 470 659 401 659 c 1x9120
 407 583 265 581 266 662 c 0
 266 701 277 734 329 768 c 0
 336 772 351 775 380 776 c 0xa120
 398 776 467 776 554 776 c 0
 583 776 633 776 678 775 c 0x8920
 847 775 840 496 629 508 c 0
 610 509 562 554 604 583 c 0
 654 618 739 656 624 659 c 0x9120
 616 659 558 661 558 661 c 1x4920
 550 602 357 174 302 119 c 1x9120
93 884 m 0
 93 926 126 961 165 961 c 0
 205 961 237 926 237 884 c 0
 237 842 205 808 165 808 c 0
 126 808 93 842 93 884 c 0
278 877 m 0
 278 919 310 953 350 953 c 0x04c0
 390 953 419 922 419 880 c 0
 419 838 390 801 350 801 c 0
 310 801 278 835 278 877 c 0
EndSplineSet
EndChar

StartChar: Idieresis
Encoding: 207 207 79
Width: 793
Flags: W
HStem: 1 117<134 412 377 412 377 426> 1 269 508 267 659 116<616 758.5> 661 115<490 505 554 554> 832 35
VStem: 16 115 173 106 173 181 678 115
LayerCount: 2
Back
Fore
SplineSet
298 119 m 1x8f40
 298 119 342 118 412 118 c 1x9740
 405 195 547 197 546 116 c 0
 546 77 538 30 484 10 c 0
 473 5 454 0 426 1 c 0
 394 1 397 1 313 1 c 0
 284 1 178 1 134 1 c 0
 -35 1 -27 282 183 270 c 0
 202 269 250 224 209 195 c 0
 159 160 73 122 188 119 c 0
 193 119 222 119 244 119 c 1
 274 165 508 661 502 661 c 0x4f40
 478 661 466 659 397 659 c 1x9740
 403 583 261 581 262 662 c 0
 262 701 273 734 325 768 c 0
 332 772 347 775 376 776 c 0
 394 776 463 776 550 776 c 0x8f40
 579 776 629 776 674 775 c 0
 843 775 836 496 625 508 c 0xa740
 606 509 558 554 600 583 c 0
 650 618 735 656 620 659 c 0x9740
 612 659 554 661 554 661 c 1
 546 602 353 174 298 119 c 1x8f40
354 854 m 1x96c0
 309 800 140 852 178 938 c 0
 199 985 244 990 271 964 c 0
 293 942 265 895 271 883 c 0
 288 848 335 885 354 854 c 1x96c0
EndSplineSet
EndChar

StartChar: Ecircumflex
Encoding: 202 202 80
Width: 809
Flags: W
HStem: 0 20 107 255 419 224<331 637 493 637> 419 227 806 152<369 409> 813 153<184.5 224>
VStem: 132 144<868 910> 317 141<864 903>
LayerCount: 2
Back
Fore
SplineSet
499 0 m 2xd0
 82 0 l 2
 35 0 6 32 26 75 c 0
 46 117 106 162 153 156 c 1
 230 326 341 583 376 657 c 1
 280 612 272 718 374 775 c 0
 421 801 475 810 477 766 c 0
 477 764 478 763 476 757 c 1
 505 757 645 760 691 759 c 0
 859 759 853 480 642 491 c 0
 623 492 575 537 616 566 c 0
 666 601 752 640 637 643 c 0xe0
 623 643 453 640 428 640 c 1
 401 574 382 529 331 419 c 1
 493 419 l 2
 521 419 537 407 530 391 c 0
 523 375 495 362 467 362 c 2
 304 362 l 1
 250 247 237 211 191 137 c 1
 209 131 334 74 459 135 c 1
 433 227 581 267 607 200 c 0
 633 134 536 0 499 0 c 2xd0
132 889 m 0
 132 931 165 966 204 966 c 0
 244 966 276 931 276 889 c 0
 276 847 244 813 204 813 c 0
 165 813 132 847 132 889 c 0
317 882 m 0
 317 924 349 958 389 958 c 0x0b
 429 958 458 927 458 885 c 0
 458 843 429 806 389 806 c 0
 349 806 317 840 317 882 c 0
EndSplineSet
EndChar

StartChar: Edieresis
Encoding: 203 203 81
Width: 805
Flags: W
HStem: 0 20 107 255 419 224<327 633 489 633> 419 227 831 35
VStem: 198 106 198 181
LayerCount: 2
Back
Fore
SplineSet
495 0 m 2xdc
 78 0 l 2
 31 0 2 32 22 75 c 0
 42 117 102 162 149 156 c 1
 226 326 337 583 372 657 c 1
 276 612 268 718 370 775 c 0
 417 801 471 810 473 766 c 0
 473 764 474 763 472 757 c 1
 501 757 641 760 687 759 c 0
 855 759 849 480 638 491 c 0
 619 492 571 537 612 566 c 0
 662 601 748 640 633 643 c 0xec
 619 643 449 640 424 640 c 1
 397 574 378 529 327 419 c 1
 489 419 l 2
 517 419 533 407 526 391 c 0
 519 375 491 362 463 362 c 2
 300 362 l 1
 246 247 233 211 187 137 c 1
 205 131 330 74 455 135 c 1
 429 227 577 267 603 200 c 0
 629 134 532 0 495 0 c 2xdc
379 853 m 1xda
 334 799 165 851 203 937 c 0
 224 984 269 989 296 963 c 0
 318 941 290 894 296 882 c 0
 313 847 360 884 379 853 c 1xda
EndSplineSet
EndChar

StartChar: Aring
Encoding: 197 197 82
Width: 671
Flags: W
HStem: -31 20 751 20G
LayerCount: 2
Back
Fore
SplineSet
375 28 m 2
 473 300 l 1
 424 300 l 2
 396 300 380 313 387 328 c 0
 394 343 422 356 450 356 c 2
 494 356 l 1
 597 634 l 1
 148 35 l 2
 120 -3 -17 -33 10 55 c 0
 62 230 176 152 167 147 c 1
 609 744 l 2
 635 779 675 781 671 747 c 2
 613 115 l 2
 603 0 330 -98 375 28 c 2
237 822 m 4
 247 860 281 853 309 874 c 4
 352 905 365 972 416 958 c 4
 441 951 453 937 469 916 c 4
 527 838 224 771 237 822 c 4
EndSplineSet
EndChar

StartChar: ydieresis
Encoding: 255 255 83
Width: 823
Flags: W
HStem: -225 40 558 20G 592 152<359 399> 599 153<174.5 214>
VStem: 122 144<654 696> 307 141<650 689> 587 93
LayerCount: 2
Back
Fore
SplineSet
131 -225 m 0xde
 82 -225 42 -220 29 -176 c 0
 8 -100 80 -42 164 -31 c 0
 201 -26 275 -33 222 -94 c 0
 172 -152 148 -103 117 -169 c 1
 156 -221 309 -138 411 -2 c 0
 420 10 428 20 437 33 c 2
 461 67 l 1
 336 12 174 -41 137 18 c 0
 113 56 329 418 389 531 c 1
 434 531 444 531 520 531 c 1
 588 539 575 477 493 485 c 1
 352 298 309 151 361 97 c 0
 376 82 436 95 491 118 c 1
 740 511 l 2
 758 540 838 599 820 570 c 2
 564 152 l 1
 659 200 742 103 614 18 c 0
 593 3 560 -5 540 0 c 0
 491 12 685 163 517 79 c 1
 480 25 l 2
 384 -112 273 -225 131 -225 c 0xde
122 675 m 0
 122 717 155 752 194 752 c 0
 234 752 266 717 266 675 c 0
 266 633 234 599 194 599 c 0
 155 599 122 633 122 675 c 0
307 668 m 0
 307 710 339 744 379 744 c 0
 419 744 448 713 448 671 c 0
 448 629 419 592 379 592 c 0xee
 339 592 307 626 307 668 c 0
EndSplineSet
EndChar

StartChar: Yacute
Encoding: 221 221 84
Width: 721
Flags: W
HStem: -5 58<43 134 84 122 122 134 194 199> 744 152<339 379> 751 153<154.5 194>
VStem: 102 144<806 848> 287 141<802 841>
LayerCount: 2
Back
Fore
SplineSet
224 581 m 1x80
 149 503 76 571 150 660 c 0
 184 701 237 735 268 710 c 0
 282 700 302 620 317 422 c 1
 570 704 l 2
 675 821 791 657 668 563 c 2
 301 280 l 1
 267 209 257 151 194 53 c 1
 229 53 l 2
 254 53 273 41 265 25 c 0
 258 9 227 -5 199 -5 c 2
 122 -5 l 1
 57 -5 l 2
 29 -5 13 9 20 25 c 0
 28 41 56 53 84 53 c 2
 134 53 l 1
 161 110 221 239 260 324 c 1
 253 362 239 497 224 581 c 1x80
102 827 m 0
 102 869 135 904 174 904 c 0
 214 904 246 869 246 827 c 0
 246 785 214 751 174 751 c 0
 135 751 102 785 102 827 c 0
287 820 m 0
 287 862 319 896 359 896 c 0x58
 399 896 428 865 428 823 c 0
 428 781 399 744 359 744 c 0
 319 744 287 778 287 820 c 0
EndSplineSet
EndChar

StartChar: egrave
Encoding: 232 232 85
Width: 719
Flags: W
HStem: -17 31<245 328.5 245 336> 260 30<365 391> 489 36<458 541.5>
VStem: 49 140 169 143 590 130
LayerCount: 2
Back
Fore
SplineSet
177 393 m 0
 211 466 358 525 506 525 c 0
 655 525 747 466 713 393 c 0
 679 321 536 262 391 260 c 0
 307 260 234 201 197 116 c 0
 173 61 203 14 287 14 c 0
 370 14 436 78 462 133 c 1
 515 223 671 254 602 136 c 1
 568 63 410 -17 262 -17 c 0
 114 -17 22 43 56 116 c 0
 82 172 174 242 282 273 c 1
 197 294 151 338 177 393 c 0
322 390 m 0
 296 335 323 290 407 290 c 0
 491 290 555 335 581 390 c 0
 606 444 583 489 500 489 c 0
 416 489 347 444 322 390 c 0
EndSplineSet
EndChar

StartChar: eacute
Encoding: 233 233 86
Width: 710
Flags: W
HStem: -17 31<235 318.5 235 326> 260 30<355 381> 489 36<448 531.5> 576 35
VStem: 39 140 159 143 184 181 580 130
LayerCount: 2
Back
Fore
SplineSet
167 393 m 0xf5
 201 466 348 525 496 525 c 0
 645 525 737 466 703 393 c 0
 669 321 526 262 381 260 c 0
 297 260 224 201 187 116 c 0
 163 61 193 14 277 14 c 0
 360 14 426 78 452 133 c 1
 505 223 661 254 592 136 c 1
 558 63 400 -17 252 -17 c 0
 104 -17 12 43 46 116 c 0
 72 172 164 242 272 273 c 1
 187 294 141 338 167 393 c 0xf5
312 390 m 0
 286 335 313 290 397 290 c 0
 481 290 545 335 571 390 c 0
 596 444 573 489 490 489 c 0
 406 489 337 444 312 390 c 0
365 598 m 1xfb
 320 544 151 596 189 682 c 0
 210 729 255 734 282 708 c 0
 304 686 276 639 282 627 c 0
 299 592 346 629 365 598 c 1xfb
EndSplineSet
EndChar

StartChar: ecircumflex
Encoding: 234 234 87
Width: 719
Flags: W
HStem: -17 31<245 328.5 245 336> 260 30<365 391> 489 36<458 541.5>
VStem: 49 140 169 143 590 130
LayerCount: 2
Back
Fore
SplineSet
177 393 m 0
 211 466 358 525 506 525 c 0
 655 525 747 466 713 393 c 0
 679 321 536 262 391 260 c 0
 307 260 234 201 197 116 c 0
 173 61 203 14 287 14 c 0
 370 14 436 78 462 133 c 1
 515 223 671 254 602 136 c 1
 568 63 410 -17 262 -17 c 0
 114 -17 22 43 56 116 c 0
 82 172 174 242 282 273 c 1
 197 294 151 338 177 393 c 0
322 390 m 0
 296 335 323 290 407 290 c 0
 491 290 555 335 581 390 c 0
 606 444 583 489 500 489 c 0
 416 489 347 444 322 390 c 0
EndSplineSet
EndChar

StartChar: edieresis
Encoding: 235 235 88
Width: 716
Flags: W
HStem: -17 31<241 324.5 241 332> 260 30<361 387> 489 36<454 537.5> 554 152<374 414> 561 153<189.5 229>
VStem: 137 144<616 658> 165 143 322 141<612 651> 586 130
LayerCount: 2
Back
Fore
SplineSet
173 393 m 0xf380
 207 466 354 525 502 525 c 0
 651 525 743 466 709 393 c 0
 675 321 532 262 387 260 c 0
 303 260 230 201 193 116 c 0
 169 61 199 14 283 14 c 0
 366 14 432 78 458 133 c 1
 511 223 667 254 598 136 c 1
 564 63 406 -17 258 -17 c 0
 110 -17 18 43 52 116 c 0
 78 172 170 242 278 273 c 1
 193 294 147 338 173 393 c 0xf380
318 390 m 0
 292 335 319 290 403 290 c 0
 487 290 551 335 577 390 c 0
 602 444 579 489 496 489 c 0
 412 489 343 444 318 390 c 0
137 637 m 0xed80
 137 679 170 714 209 714 c 0
 249 714 281 679 281 637 c 0
 281 595 249 561 209 561 c 0
 170 561 137 595 137 637 c 0xed80
322 630 m 0
 322 672 354 706 394 706 c 0
 434 706 463 675 463 633 c 0
 463 591 434 554 394 554 c 0xf380
 354 554 322 588 322 630 c 0
EndSplineSet
EndChar

StartChar: agrave
Encoding: 224 224 89
Width: 736
Flags: W
HStem: -31 20 17 200<235.5 382> 93 124 254 150
LayerCount: 2
Back
Fore
SplineSet
736 464 m 0
 719 377 632 282 541 220 c 1
 584 196 601 161 583 122 c 0
 562 76 495 35 412 11 c 1
 422 6 434 5 463 5 c 0
 486 5 472 -31 448 -31 c 0
 394 -31 368 -23 362 -1 c 1
 326 -8 290 -11 253 -11 c 0
 105 -11 13 49 47 122 c 0
 81 195 229 254 377 254 c 0
 429 254 474 247 509 234 c 1
 545 256 578 301 610 337 c 0
 689 427 244 412 231 372 c 0
 222 342 240 331 225 314 c 0
 219 308 213 308 205 303 c 0
 188 291 176 369 186 430 c 0
 210 574 752 548 736 464 c 0
381 161 m 0
 411 182 424 186 441 195 c 1
 421 208 399 217 365 217 c 0
 281 217 212 174 187 119 c 0
 161 64 194 17 277 17 c 0
 307 17 325 22 353 32 c 1
 356 44 361 58 366 74 c 0
 375 97 411 100 403 77 c 0
 399 66 395 56 392 48 c 1
 426 66 441 93 453 119 c 0
 464 140 472 156 461 173 c 1
 438 158 414 144 392 130 c 0
 355 107 347 138 381 161 c 0
194 582 m 0
 204 620 238 613 266 634 c 0
 309 665 322 732 373 718 c 0
 398 711 410 697 426 676 c 0
 484 598 181 531 194 582 c 0
EndSplineSet
EndChar

StartChar: aacute
Encoding: 225 225 90
Width: 736
Flags: W
HStem: -31 20 17 200<235.5 382> 254 150 580 35
VStem: 204 106 204 181
LayerCount: 2
Back
Fore
SplineSet
736 464 m 0xf8
 719 377 632 282 541 220 c 1
 584 196 601 161 583 122 c 0
 562 76 495 35 412 11 c 1
 422 6 434 5 463 5 c 0
 486 5 472 -31 448 -31 c 0
 394 -31 368 -23 362 -1 c 1
 326 -8 290 -11 253 -11 c 0
 105 -11 13 49 47 122 c 0
 81 195 229 254 377 254 c 0
 429 254 474 247 509 234 c 1
 545 256 578 301 610 337 c 0
 689 427 244 412 231 372 c 0
 222 342 240 331 225 314 c 0
 219 308 213 308 205 303 c 0
 188 291 176 369 186 430 c 0
 210 574 752 548 736 464 c 0xf8
381 161 m 0
 411 182 424 186 441 195 c 1
 421 208 399 217 365 217 c 0
 281 217 212 174 187 119 c 0
 161 64 194 17 277 17 c 0
 307 17 325 22 353 32 c 1
 356 44 361 58 366 74 c 0
 375 97 411 100 403 77 c 0
 399 66 395 56 392 48 c 1
 426 66 441 93 453 119 c 0
 464 140 472 156 461 173 c 1
 438 158 414 144 392 130 c 0
 355 107 347 138 381 161 c 0
385 602 m 1xf4
 340 548 171 600 209 686 c 0
 230 733 275 738 302 712 c 0
 324 690 296 643 302 631 c 0
 319 596 366 633 385 602 c 1xf4
EndSplineSet
EndChar

StartChar: acircumflex
Encoding: 226 226 91
Width: 745
Flags: W
HStem: -31 20 17 200<244.5 391> 93 124 254 150
LayerCount: 2
Back
Fore
SplineSet
745 464 m 0
 728 377 641 282 550 220 c 1
 593 196 610 161 592 122 c 0
 571 76 504 35 421 11 c 1
 431 6 443 5 472 5 c 0
 495 5 481 -31 457 -31 c 0
 403 -31 377 -23 371 -1 c 1
 335 -8 299 -11 262 -11 c 0
 114 -11 22 49 56 122 c 0
 90 195 238 254 386 254 c 0
 438 254 483 247 518 234 c 1
 554 256 587 301 619 337 c 0
 698 427 253 412 240 372 c 0
 231 342 249 331 234 314 c 0
 228 308 222 308 214 303 c 0
 197 291 185 369 195 430 c 0
 219 574 761 548 745 464 c 0
390 161 m 0
 420 182 433 186 450 195 c 1
 430 208 408 217 374 217 c 0
 290 217 221 174 196 119 c 0
 170 64 203 17 286 17 c 0
 316 17 334 22 362 32 c 1
 365 44 370 58 375 74 c 0
 384 97 420 100 412 77 c 0
 408 66 404 56 401 48 c 1
 435 66 450 93 462 119 c 0
 473 140 481 156 470 173 c 1
 447 158 423 144 401 130 c 0
 364 107 356 138 390 161 c 0
EndSplineSet
EndChar

StartChar: atilde
Encoding: 227 227 92
Width: 740
Flags: W
HStem: -31 20 17 200<238.5 385> 254 150 561 152<354 394> 568 153<169.5 209>
VStem: 117 144<623 665> 302 141<619 658>
LayerCount: 2
Back
Fore
SplineSet
739 464 m 0xee
 722 377 635 282 544 220 c 1
 587 196 604 161 586 122 c 0
 565 76 498 35 415 11 c 1
 425 6 437 5 466 5 c 0
 489 5 475 -31 451 -31 c 0
 397 -31 371 -23 365 -1 c 1
 329 -8 293 -11 256 -11 c 0
 108 -11 16 49 50 122 c 0
 84 195 232 254 380 254 c 0
 432 254 477 247 512 234 c 1
 548 256 581 301 613 337 c 0
 692 427 247 412 234 372 c 0
 225 342 243 331 228 314 c 0
 222 308 216 308 208 303 c 0
 191 291 179 369 189 430 c 0
 213 574 755 548 739 464 c 0xee
384 161 m 0
 414 182 427 186 444 195 c 1
 424 208 402 217 368 217 c 0
 284 217 215 174 190 119 c 0
 164 64 197 17 280 17 c 0
 310 17 328 22 356 32 c 1
 359 44 364 58 369 74 c 0
 378 97 414 100 406 77 c 0
 402 66 398 56 395 48 c 1
 429 66 444 93 456 119 c 0
 467 140 475 156 464 173 c 1
 441 158 417 144 395 130 c 0
 358 107 350 138 384 161 c 0
117 644 m 0
 117 686 150 721 189 721 c 0
 229 721 261 686 261 644 c 0
 261 602 229 568 189 568 c 0
 150 568 117 602 117 644 c 0
302 637 m 0
 302 679 334 713 374 713 c 0
 414 713 443 682 443 640 c 0
 443 598 414 561 374 561 c 0xf6
 334 561 302 595 302 637 c 0
EndSplineSet
EndChar

StartChar: adieresis
Encoding: 228 228 93
Width: 745
Flags: W
HStem: -31 20 17 200<244.5 391> 93 124 254 150
LayerCount: 2
Back
Fore
SplineSet
745 464 m 0
 728 377 641 282 550 220 c 1
 593 196 610 161 592 122 c 0
 571 76 504 35 421 11 c 1
 431 6 443 5 472 5 c 0
 495 5 481 -31 457 -31 c 0
 403 -31 377 -23 371 -1 c 1
 335 -8 299 -11 262 -11 c 0
 114 -11 22 49 56 122 c 0
 90 195 238 254 386 254 c 0
 438 254 483 247 518 234 c 1
 554 256 587 301 619 337 c 0
 698 427 253 412 240 372 c 0
 231 342 249 331 234 314 c 0
 228 308 222 308 214 303 c 0
 197 291 185 369 195 430 c 0
 219 574 761 548 745 464 c 0
390 161 m 0
 420 182 433 186 450 195 c 1
 430 208 408 217 374 217 c 0
 290 217 221 174 196 119 c 0
 170 64 203 17 286 17 c 0
 316 17 334 22 362 32 c 1
 365 44 370 58 375 74 c 0
 384 97 420 100 412 77 c 0
 408 66 404 56 401 48 c 1
 435 66 450 93 462 119 c 0
 473 140 481 156 470 173 c 1
 447 158 423 144 401 130 c 0
 364 107 356 138 390 161 c 0
EndSplineSet
EndChar

StartChar: aring
Encoding: 229 229 94
Width: 745
Flags: W
HStem: -31 20 17 200<244.5 391> 93 124 254 150
LayerCount: 2
Back
Fore
SplineSet
745 464 m 0
 728 377 641 282 550 220 c 1
 593 196 610 161 592 122 c 0
 571 76 504 35 421 11 c 1
 431 6 443 5 472 5 c 0
 495 5 481 -31 457 -31 c 0
 403 -31 377 -23 371 -1 c 1
 335 -8 299 -11 262 -11 c 0
 114 -11 22 49 56 122 c 0
 90 195 238 254 386 254 c 0
 438 254 483 247 518 234 c 1
 554 256 587 301 619 337 c 0
 698 427 253 412 240 372 c 0
 231 342 249 331 234 314 c 0
 228 308 222 308 214 303 c 0
 197 291 185 369 195 430 c 0
 219 574 761 548 745 464 c 0
390 161 m 0
 420 182 433 186 450 195 c 1
 430 208 408 217 374 217 c 0
 290 217 221 174 196 119 c 0
 170 64 203 17 286 17 c 0
 316 17 334 22 362 32 c 1
 365 44 370 58 375 74 c 0
 384 97 420 100 412 77 c 0
 408 66 404 56 401 48 c 1
 435 66 450 93 462 119 c 0
 473 140 481 156 470 173 c 1
 447 158 423 144 401 130 c 0
 364 107 356 138 390 161 c 0
EndSplineSet
EndChar

StartChar: ograve
Encoding: 242 242 95
Width: 658
Flags: W
HStem: -15 20
LayerCount: 2
Back
Fore
SplineSet
54 179 m 0
 77 325 231 479 397 523 c 0
 563 567 679 486 655 340 c 0
 632 195 478 41 312 -3 c 0
 146 -48 31 34 54 179 c 0
235 236 m 0
 184 108 181 35 241 27 c 0
 303 19 419 131 469 259 c 0
 520 387 527 487 457 487 c 0
 399 487 285 364 235 236 c 0
193 581 m 0
 203 619 237 612 265 633 c 0
 308 664 321 731 372 717 c 0
 397 710 409 696 425 675 c 0
 483 597 180 530 193 581 c 0
EndSplineSet
EndChar

StartChar: oacute
Encoding: 243 243 96
Width: 657
Flags: W
HStem: -15 20 579 35
VStem: 202 106 202 181
LayerCount: 2
Back
Fore
SplineSet
53 179 m 0xe0
 76 325 230 479 396 523 c 0
 562 567 678 486 654 340 c 0
 631 195 477 41 311 -3 c 0
 145 -48 30 34 53 179 c 0xe0
234 236 m 0
 183 108 180 35 240 27 c 0
 302 19 418 131 468 259 c 0
 519 387 526 487 456 487 c 0
 398 487 284 364 234 236 c 0
383 601 m 1xd0
 338 547 169 599 207 685 c 0
 228 732 273 737 300 711 c 0
 322 689 294 642 300 630 c 0
 317 595 364 632 383 601 c 1xd0
EndSplineSet
EndChar

StartChar: ocircumflex
Encoding: 244 244 97
Width: 666
Flags: W
HStem: -15 20
LayerCount: 2
Back
Fore
SplineSet
62 179 m 0
 85 325 239 479 405 523 c 0
 571 567 687 486 663 340 c 0
 640 195 486 41 320 -3 c 0
 154 -48 39 34 62 179 c 0
243 236 m 0
 192 108 189 35 249 27 c 0
 311 19 427 131 477 259 c 0
 528 387 535 487 465 487 c 0
 407 487 293 364 243 236 c 0
EndSplineSet
EndChar

StartChar: otilde
Encoding: 245 245 98
Width: 661
Flags: W
HStem: -15 20 548 152<367 407> 555 153<182.5 222>
VStem: 130 144<610 652> 315 141<606 645>
LayerCount: 2
Back
Fore
SplineSet
57 179 m 0x80
 80 325 234 479 400 523 c 0
 566 567 682 486 658 340 c 0
 635 195 481 41 315 -3 c 0
 149 -48 34 34 57 179 c 0x80
238 236 m 0
 187 108 184 35 244 27 c 0
 306 19 422 131 472 259 c 0
 523 387 530 487 460 487 c 0
 402 487 288 364 238 236 c 0
130 631 m 0
 130 673 163 708 202 708 c 0
 242 708 274 673 274 631 c 0
 274 589 242 555 202 555 c 0
 163 555 130 589 130 631 c 0
315 624 m 0
 315 666 347 700 387 700 c 0x58
 427 700 456 669 456 627 c 0
 456 585 427 548 387 548 c 0
 347 548 315 582 315 624 c 0
EndSplineSet
EndChar

StartChar: odieresis
Encoding: 246 246 99
Width: 666
Flags: W
HStem: -15 20
LayerCount: 2
Back
Fore
SplineSet
62 179 m 0
 85 325 239 479 405 523 c 0
 571 567 687 486 663 340 c 0
 640 195 486 41 320 -3 c 0
 154 -48 39 34 62 179 c 0
243 236 m 0
 192 108 189 35 249 27 c 0
 311 19 427 131 477 259 c 0
 528 387 535 487 465 487 c 0
 407 487 293 364 243 236 c 0
EndSplineSet
EndChar

StartChar: ntilde
Encoding: 241 241 100
Width: 673
Flags: W
HStem: -1 20 558 20G
LayerCount: 2
Back
Fore
SplineSet
126 330 m 0
 134 340 180 370 244 405 c 1
 250 417 255 427 259 437 c 1
 164 392 151 499 253 556 c 0
 300 582 354 591 356 547 c 0
 356 540 341 498 316 440 c 1
 462 512 643 579 673 514 c 0
 692 475 419 113 341 0 c 1
 297 0 288 -1 212 -1 c 1
 143 -9 164 54 245 46 c 1
 415 233 480 381 437 434 c 0
 425 449 354 414 288 376 c 1
 229 248 144 81 78 0 c 1
 57 0 64 0 49 0 c 1
 68 25 149 200 209 330 c 1
 197 323 188 317 180 312 c 0
 133 285 105 303 126 330 c 0
EndSplineSet
EndChar

StartChar: uacute
Encoding: 250 250 101
Width: 705
Flags: W
HStem: -8 20 558 20G
VStem: 463 99
LayerCount: 2
Back
Fore
SplineSet
20 18 m 0
 56 -41 219 12 343 67 c 1
 316 26 l 2
 298 -2 338 -16 355 13 c 2
 391 73 l 1
 559 157 374 12 422 0 c 0
 442 -5 475 3 497 18 c 0
 625 103 542 200 447 152 c 1
 703 570 l 2
 720 599 641 540 623 511 c 2
 374 118 l 1
 318 95 259 82 244 97 c 0
 192 151 235 298 375 485 c 1
 458 477 470 539 402 531 c 1
 326 531 317 531 272 531 c 1
 212 418 -5 56 20 18 c 0
170 613 m 0
 180 651 214 644 242 665 c 0
 285 696 298 763 349 749 c 0
 374 742 386 728 402 707 c 0
 460 629 157 562 170 613 c 0
EndSplineSet
EndChar

StartChar: ucircumflex
Encoding: 251 251 102
Width: 712
Flags: W
HStem: -8 20 558 20G
VStem: 469 99
LayerCount: 2
Back
Fore
SplineSet
26 18 m 0
 1 56 218 418 278 531 c 1
 323 531 332 531 408 531 c 1
 476 539 464 477 381 485 c 1
 241 298 198 151 250 97 c 0
 265 82 324 95 380 118 c 1
 629 511 l 2
 647 540 726 599 709 570 c 2
 453 152 l 1
 548 200 631 103 503 18 c 0
 481 3 448 -5 428 0 c 0
 380 12 565 157 397 73 c 1
 361 13 l 2
 344 -16 304 -2 322 26 c 2
 349 67 l 1
 225 12 62 -41 26 18 c 0
EndSplineSet
EndChar

StartChar: udieresis
Encoding: 252 252 103
Width: 713
Flags: W
HStem: -8 20 558 20G<152.5 192> 571 152<337 377> 578 153<152.5 192>
VStem: 100 144<633 675> 285 141<629 668> 471 99
LayerCount: 2
Back
Fore
SplineSet
28 18 m 0xc2
 3 56 220 418 280 531 c 1
 325 531 334 531 410 531 c 1
 478 539 466 477 383 485 c 1
 243 298 200 151 252 97 c 0
 267 82 326 95 382 118 c 1
 631 511 l 2
 649 540 728 599 711 570 c 2
 455 152 l 1
 550 200 633 103 505 18 c 0
 483 3 450 -5 430 0 c 0
 382 12 567 157 399 73 c 1
 363 13 l 2
 346 -16 306 -2 324 26 c 2
 351 67 l 1
 227 12 64 -41 28 18 c 0xc2
100 654 m 0
 100 696 133 731 172 731 c 0
 212 731 244 696 244 654 c 0
 244 612 212 578 172 578 c 0
 133 578 100 612 100 654 c 0
285 647 m 0
 285 689 317 723 357 723 c 0x2c
 397 723 426 692 426 650 c 0
 426 608 397 571 357 571 c 0
 317 571 285 605 285 647 c 0
EndSplineSet
EndChar

StartChar: ugrave
Encoding: 249 249 104
Width: 705
Flags: W
HStem: -8 20 558 20G 587 35
VStem: 147 106 147 181 462 99
LayerCount: 2
Back
Fore
SplineSet
19 18 m 0xf4
 -6 56 211 418 271 531 c 1
 316 531 325 531 401 531 c 1
 469 539 457 477 374 485 c 1
 234 298 191 151 243 97 c 0
 258 82 317 95 373 118 c 1
 622 511 l 2
 640 540 719 599 702 570 c 2
 446 152 l 1
 541 200 624 103 496 18 c 0
 474 3 441 -5 421 0 c 0
 373 12 558 157 390 73 c 1
 354 13 l 2
 337 -16 297 -2 315 26 c 2
 342 67 l 1
 218 12 55 -41 19 18 c 0xf4
328 609 m 1xec
 283 555 114 607 152 693 c 0
 173 740 218 745 245 719 c 0
 267 697 239 650 245 638 c 0
 262 603 309 640 328 609 c 1xec
EndSplineSet
EndChar

StartChar: Adieresis
Encoding: 196 196 105
Width: 675
Flags: W
HStem: -31 20 751 20G 803 152<389 429> 810 153<204.5 244>
VStem: 152 144<865 907> 337 141<861 900>
LayerCount: 2
Back
Fore
SplineSet
378 28 m 2xc0
 476 300 l 1
 427 300 l 2
 399 300 383 313 390 328 c 0
 397 343 425 356 453 356 c 2
 497 356 l 1
 600 634 l 1
 151 35 l 2
 123 -3 -14 -33 13 55 c 0
 65 230 179 152 170 147 c 1
 612 744 l 2
 638 779 678 781 674 747 c 2
 616 115 l 2
 606 0 333 -98 378 28 c 2xc0
152 886 m 0
 152 928 185 963 224 963 c 0
 264 963 296 928 296 886 c 0
 296 844 264 810 224 810 c 0
 185 810 152 844 152 886 c 0
337 879 m 0
 337 921 369 955 409 955 c 0x2c
 449 955 478 924 478 882 c 0
 478 840 449 803 409 803 c 0
 369 803 337 837 337 879 c 0
EndSplineSet
EndChar

StartChar: Eacute
Encoding: 201 201 106
Width: 805
Flags: W
HStem: 0 20 107 255 419 224<327 633 489 633> 419 227
LayerCount: 2
Back
Fore
SplineSet
495 0 m 2xd0
 78 0 l 2
 31 0 2 32 22 75 c 0
 42 117 102 162 149 156 c 1
 226 326 337 583 372 657 c 1
 276 612 268 718 370 775 c 0
 417 801 471 810 473 766 c 0
 473 764 474 763 472 757 c 1
 501 757 641 760 687 759 c 0
 855 759 849 480 638 491 c 0
 619 492 571 537 612 566 c 0
 662 601 748 640 633 643 c 0xe0
 619 643 449 640 424 640 c 1
 397 574 378 529 327 419 c 1
 489 419 l 2
 517 419 533 407 526 391 c 0
 519 375 491 362 463 362 c 2
 300 362 l 1
 246 247 233 211 187 137 c 1
 205 131 330 74 455 135 c 1
 429 227 577 267 603 200 c 0
 629 134 532 0 495 0 c 2xd0
212 838 m 0
 222 876 256 869 284 890 c 0
 327 921 340 988 391 974 c 0
 416 967 428 953 444 932 c 0
 502 854 199 787 212 838 c 0
EndSplineSet
EndChar

StartChar: Udieresis
Encoding: 220 220 107
Width: 676
Flags: W
HStem: -10 20 749 20G 799 152<283 323> 806 153<98.5 138>
VStem: 46 144<861 903> 231 141<857 896>
LayerCount: 2
Back
Fore
SplineSet
311 123 m 0xc0
 327 133 367 171 383 207 c 0
 405 252 532 522 579 622 c 1
 483 578 471 691 573 748 c 0
 620 774 674 782 676 738 c 0
 676 720 557 435 433 210 c 1
 570 258 545 119 454 43 c 0
 412 8 332 8 314 44 c 1
 175 -65 -55 -5 41 195 c 0
 62 240 185 506 199 535 c 0
 239 622 260 661 268 680 c 0
 282 708 311 734 317 738 c 0
 368 774 403 774 434 756 c 0
 498 719 419 598 352 612 c 1
 319 542 133 147 122 123 c 0
 83 40 260 89 311 123 c 0xc0
46 882 m 0
 46 924 79 959 118 959 c 0
 158 959 190 924 190 882 c 0
 190 840 158 806 118 806 c 0
 79 806 46 840 46 882 c 0
231 875 m 0
 231 917 263 951 303 951 c 0x2c
 343 951 372 920 372 878 c 0
 372 836 343 799 303 799 c 0
 263 799 231 833 231 875 c 0
EndSplineSet
EndChar

StartChar: Uacute
Encoding: 218 218 108
Width: 673
Flags: W
HStem: -10 20 749 20G
LayerCount: 2
Back
Fore
SplineSet
308 123 m 0
 324 133 364 171 380 207 c 0
 402 252 529 522 576 622 c 1
 480 578 468 691 570 748 c 0
 617 774 671 782 673 738 c 0
 673 720 554 435 430 210 c 1
 567 258 542 119 451 43 c 0
 409 8 329 8 311 44 c 1
 172 -65 -58 -5 38 195 c 0
 59 240 182 506 196 535 c 0
 236 622 257 661 265 680 c 0
 279 708 308 734 314 738 c 0
 365 774 400 774 431 756 c 0
 495 719 416 598 349 612 c 1
 316 542 130 147 119 123 c 0
 80 40 257 89 308 123 c 0
117 838 m 0
 127 876 161 869 189 890 c 0
 232 921 245 988 296 974 c 0
 321 967 333 953 349 932 c 0
 407 854 104 787 117 838 c 0
EndSplineSet
EndChar

StartChar: Ugrave
Encoding: 217 217 109
Width: 672
Flags: W
HStem: -10 20 749 20G 818 35
VStem: 124 106 124 181
LayerCount: 2
Back
Fore
SplineSet
308 123 m 0xf0
 324 133 364 171 380 207 c 0
 402 252 529 522 576 622 c 1
 480 578 468 691 570 748 c 0
 617 774 671 782 673 738 c 0
 673 720 554 435 430 210 c 1
 567 258 542 119 451 43 c 0
 409 8 329 8 311 44 c 1
 172 -65 -58 -5 38 195 c 0
 59 240 182 506 196 535 c 0
 236 622 257 661 265 680 c 0
 279 708 308 734 314 738 c 0
 365 774 400 774 431 756 c 0
 495 719 416 598 349 612 c 1
 316 542 130 147 119 123 c 0
 80 40 257 89 308 123 c 0xf0
305 840 m 1xe8
 260 786 91 838 129 924 c 0
 150 971 195 976 222 950 c 0
 244 928 216 881 222 869 c 0
 239 834 286 871 305 840 c 1xe8
EndSplineSet
EndChar

StartChar: Ucircumflex
Encoding: 219 219 110
Width: 680
Flags: W
HStem: -10 20 749 20G
LayerCount: 2
Back
Fore
SplineSet
316 123 m 0
 332 133 372 171 388 207 c 0
 410 252 537 522 584 622 c 1
 488 578 476 691 578 748 c 0
 625 774 679 782 681 738 c 0
 681 720 562 435 438 210 c 1
 575 258 550 119 459 43 c 0
 417 8 337 8 319 44 c 1
 180 -65 -50 -5 46 195 c 0
 67 240 190 506 204 535 c 0
 244 622 265 661 273 680 c 0
 287 708 316 734 322 738 c 0
 373 774 408 774 439 756 c 0
 503 719 424 598 357 612 c 1
 324 542 138 147 127 123 c 0
 88 40 265 89 316 123 c 0
EndSplineSet
EndChar

StartChar: Ograve
Encoding: 210 210 111
Width: 719
Flags: W
HStem: -1 20
LayerCount: 2
Back
Fore
SplineSet
60 279 m 0
 111 487 298 708 477 772 c 0
 655 836 758 718 706 509 c 0
 654 301 467 80 289 16 c 0
 110 -48 8 70 60 279 c 0
255 359 m 0
 179 175 162 71 221 60 c 0
 283 48 423 208 500 392 c 0
 576 576 603 720 531 720 c 0
 472 720 332 543 255 359 c 0
200 834 m 0
 210 872 244 865 272 886 c 0
 315 917 328 984 379 970 c 0
 404 963 416 949 432 928 c 0
 490 850 187 783 200 834 c 0
EndSplineSet
EndChar

StartChar: Oacute
Encoding: 211 211 112
Width: 726
Flags: W
HStem: -1 20
LayerCount: 2
Back
Fore
SplineSet
67 279 m 0
 118 487 305 708 484 772 c 0
 662 836 765 718 713 509 c 0
 661 301 474 80 296 16 c 0
 117 -48 15 70 67 279 c 0
262 359 m 0
 186 175 169 71 228 60 c 0
 290 48 430 208 507 392 c 0
 583 576 610 720 538 720 c 0
 479 720 339 543 262 359 c 0
EndSplineSet
EndChar

StartChar: Ocircumflex
Encoding: 212 212 113
Width: 719
Flags: W
HStem: -1 20 850 35
VStem: 227 106 227 181
LayerCount: 2
Back
Fore
SplineSet
60 279 m 0xe0
 111 487 298 708 477 772 c 0
 655 836 758 718 706 509 c 0
 654 301 467 80 289 16 c 0
 110 -48 8 70 60 279 c 0xe0
255 359 m 0
 179 175 162 71 221 60 c 0
 283 48 423 208 500 392 c 0
 576 576 603 720 531 720 c 0
 472 720 332 543 255 359 c 0
408 872 m 1xd0
 363 818 194 870 232 956 c 0
 253 1003 298 1008 325 982 c 0
 347 960 319 913 325 901 c 0
 342 866 389 903 408 872 c 1xd0
EndSplineSet
EndChar

StartChar: Agrave
Encoding: 192 192 114
Width: 671
Flags: W
HStem: -31 20 751 20G 814 35
VStem: 223 106 223 181
LayerCount: 2
Back
Fore
SplineSet
375 28 m 2xf0
 473 300 l 1
 424 300 l 2
 396 300 380 313 387 328 c 0
 394 343 422 356 450 356 c 2
 494 356 l 1
 597 634 l 1
 148 35 l 2
 120 -3 -17 -33 10 55 c 0
 62 230 176 152 167 147 c 1
 609 744 l 2
 635 779 675 781 671 747 c 2
 613 115 l 2
 603 0 330 -98 375 28 c 2xf0
404 836 m 1xe8
 359 782 190 834 228 920 c 0
 249 967 294 972 321 946 c 0
 343 924 315 877 321 865 c 0
 338 830 385 867 404 836 c 1xe8
EndSplineSet
EndChar

StartChar: dieresis
Encoding: 168 168 115
Width: 372
Flags: W
HStem: 507 152<283 323> 514 153<98.5 138>
VStem: 46 144<569 611> 231 141<565 604>
LayerCount: 2
Back
Fore
SplineSet
46 590 m 0x70
 46 632 79 667 118 667 c 0
 158 667 190 632 190 590 c 0
 190 548 158 514 118 514 c 0
 79 514 46 548 46 590 c 0x70
231 583 m 0
 231 625 263 659 303 659 c 0xb0
 343 659 372 628 372 586 c 0
 372 544 343 507 303 507 c 0
 263 507 231 541 231 583 c 0
EndSplineSet
EndChar
